<svg width="193" height="248" viewBox="0 0 193 248" fill="none" xmlns="http://www.w3.org/2000/svg">
<path fill-rule="evenodd" clip-rule="evenodd" d="M54.1113 2.92973V5.85999L49.5463 6.00794L44.9813 6.15641L49.3236 16.1308C51.712 21.617 53.5741 26.198 53.4612 26.3104C53.3488 26.4228 50.3933 25.3572 46.8939 23.9421C43.3945 22.5269 40.439 21.4608 40.3271 21.5732C39.9096 21.9908 42.8429 27.0744 47.9332 34.7552C50.8165 39.1057 53.2823 42.9428 53.4122 43.282C53.5437 43.6238 52.0847 44.8807 50.1428 46.0989L46.6361 48.2991L44.0585 46.9464C38.4903 44.0254 38.4192 43.9476 34.4486 36.4853L30.6548 29.3551L30.51 35.6703C30.4306 39.1439 30.2904 41.9855 30.1986 41.9855C30.1073 41.9855 27.8298 40.9565 25.1382 39.6986C20.2706 37.4236 20.2278 37.3875 17.1135 32.8679C15.3911 30.3686 12.4557 26.8228 10.5906 24.9881L7.19839 21.6521V25.9186V30.1851L4.34805 31.4455C2.78085 32.1389 1.21468 32.6972 0.86824 32.6864C0.522324 32.6761 -1.1253 30.4877 -2.79251 27.824C-6.38934 22.0764 -11.6075 16.0839 -17.8804 10.4982L-22.4444 6.43377L-22.5908 11.8411L-22.7372 17.2485L-20.0528 21.7552C-17.8954 25.3773 -17.0875 27.4229 -15.9389 32.175C-15.1522 35.4275 -14.5759 38.1556 -14.6579 38.2371C-14.7393 38.3191 -17.2886 37.2241 -20.3219 35.8038L-25.8381 33.2215L-35.7403 33.2607L-45.643 33.2999L-36.8791 37.5545L-28.1152 41.8092L-19.6873 50.5133C-11.6956 58.7669 -11.1131 59.5082 -8.44267 64.8326C-6.89403 67.9211 -5.69955 70.5209 -5.78874 70.6101C-5.87793 70.6992 -8.26997 69.7708 -11.1043 68.5464L-16.258 66.3204L-19.0934 67.8778C-20.6529 68.7346 -22.0319 69.5295 -22.1582 69.6445C-22.6717 70.1115 -14.913 77.3346 -10.4584 80.5365L-5.68977 83.9643V88.2519C-5.68977 91.2187 -5.88824 92.6086 -6.33417 92.7633C-12.5483 94.9223 -12.8422 95.0991 -13.0051 96.7859C-13.1592 98.3768 -13.3861 98.1655 -19.379 90.8532C-25.5422 83.3333 -25.6154 83.2131 -28.2879 76.1607L-30.9825 69.0506L-37.1513 62.6065L-43.3201 56.1624L-40.9554 61.3177C-39.6547 64.1531 -38.4097 66.9369 -38.188 67.504C-37.5869 69.0439 -36.9729 78.5889 -37.4756 78.5806C-37.7148 78.5765 -39.9279 77.4743 -42.3937 76.1319C-49.577 72.22 -61.1181 61.9693 -71.9782 49.8545C-77.002 44.2507 -81.5989 39.1635 -82.1944 38.5495C-82.9501 37.7695 -85.6458 36.8158 -91.1382 35.3837C-95.4619 34.2567 -99 33.3875 -99 33.452C-99 33.5164 -96.1976 35.6368 -92.773 38.1639C-87.5517 42.0169 -85.9917 43.5078 -83.1135 47.3985C-80.3514 51.133 -79.36 53.0183 -78.032 57.0636C-76.7246 61.0445 -75.576 63.252 -72.502 67.6876L-68.6221 73.2862L-62.2878 76.8948L-55.9536 80.503L-55.8056 84.5793L-55.6582 88.6561L-59.8772 90.5723L-64.0963 92.489L-74.8229 86.9053C-80.722 83.8343 -85.3298 81.6923 -85.0617 82.146C-84.7942 82.5991 -81.1509 86.8991 -76.9659 91.7018C-69.7929 99.9342 -69.0232 100.646 -63.5266 104.134C-53.4816 110.508 -47.9289 115.003 -44.4553 119.572C-41.5482 123.396 -40.7713 124.992 -42.0344 124.545C-45.7972 123.212 -63.5962 117.764 -63.7344 117.902C-63.837 118.004 -62.7766 118.499 -61.3779 119.003C-59.0142 119.853 -58.6683 120.213 -56.4681 124.126L-54.1008 128.336L-46.8442 132.976C-42.853 135.528 -38.8396 138.486 -37.9261 139.549C-36.5213 141.184 -35.9465 141.482 -34.203 141.482C-31.8171 141.482 -31.6604 141.633 -27.9481 147.511L-25.2798 151.735V157.478C-25.2798 161.012 -25.4746 163.154 -25.7865 163.048C-26.0649 162.954 -28.5178 161.041 -31.2377 158.797C-36.1063 154.78 -36.2295 154.623 -39.2959 148.486C-41.0085 145.059 -42.487 142.171 -42.5818 142.067C-42.6767 141.964 -45.0089 141.093 -47.7649 140.134C-52.6454 138.434 -52.9872 138.389 -60.9743 138.389H-69.1737L-60.7593 145.194C-44.8306 158.077 -44.6455 158.262 -40.1697 165.716C-37.9581 169.4 -36.3151 172.414 -36.5187 172.414C-36.7224 172.414 -39.7867 171.63 -43.3283 170.673C-46.8695 169.716 -50.4416 168.774 -51.2654 168.581C-52.0897 168.387 -56.3516 166.26 -60.7361 163.853C-65.1207 161.447 -68.7747 159.547 -68.8556 159.631C-68.9371 159.715 -67.904 162.185 -66.5595 165.12C-64.4639 169.697 -63.3926 171.259 -59.0343 176.088C-54.3998 181.223 -50.0487 187.559 -50.706 188.217C-50.8519 188.362 -53.6708 187.044 -56.9702 185.287C-60.2696 183.53 -63.0446 182.177 -63.1369 182.28C-63.2292 182.382 -61.5001 185.004 -59.2952 188.105C-55.3195 193.696 -55.2463 193.764 -50.722 196.027C-48.2119 197.283 -46.1163 198.344 -46.0647 198.386C-45.9704 198.464 -49.1156 210.572 -49.7451 212.555C-50.0632 213.557 -49.8523 213.621 -45.8008 213.763L-41.5209 213.913L-38.8453 220.486C-36.6368 225.911 -36.3213 227.055 -37.0399 227.033C-37.5183 227.019 -40.114 226.116 -42.8076 225.027L-47.7051 223.046L-47.8505 228.951L-47.9964 234.856L-52.6191 242.497L-57.2424 250.138V261.227C-57.2424 270.608 -57.1233 272.361 -56.4691 272.612C-55.8278 272.858 -55.6896 274.339 -55.6607 281.302L-55.6257 289.696L-53.8703 283.767C-52.1835 278.07 -52.1144 277.502 -52.101 269.204L-52.0871 260.569H-44.3542H-36.6213V269.079C-36.6213 277.474 -36.5935 277.685 -34.5742 284.615C-33.4488 288.48 -32.4626 291.706 -32.3832 291.784C-32.3043 291.863 -32.2394 277.854 -32.2394 260.653C-32.2394 232.682 -32.1522 229.293 -31.415 228.555C-30.8536 227.993 -30.6727 227.172 -30.848 225.979C-31.081 224.39 -31.0248 224.294 -30.2448 224.941C-29.504 225.556 -29.2442 225.528 -28.3729 224.739C-27.5455 223.99 -27.2187 223.942 -26.5784 224.473C-25.8865 225.048 -25.7953 224.487 -25.7953 219.654V214.185L-23.2244 211.6C-20.8478 209.211 -20.4678 209.017 -18.198 209.03C-16.0178 209.043 -15.4683 209.3 -13.2938 211.321L-10.845 213.596V219.36C-10.845 224.416 -10.7507 225.045 -10.0743 224.484C-9.45362 223.969 -9.05718 224.005 -8.03902 224.673C-7.16623 225.245 -6.66669 225.327 -6.42542 224.936C-5.82741 223.969 -5.22012 225.566 -5.70264 226.836C-6.05166 227.753 -5.93773 228.04 -5.14175 228.248C-4.26536 228.478 -4.14318 228.985 -4.14318 232.393C-4.14318 234.53 -3.91119 236.421 -3.62766 236.597C-3.34412 236.772 -3.11213 236.669 -3.11213 236.369C-3.11213 236.069 -2.76415 235.823 -2.33884 235.823C-1.91354 235.823 -1.56555 235.475 -1.56555 235.05C-1.56555 234.625 -1.23613 234.277 -0.833504 234.277C-0.424179 234.277 0.274361 233.198 0.752251 231.828C2.01684 228.201 3.27163 226.306 4.53106 226.121C5.93484 225.915 5.9833 225.172 4.62076 224.739C3.30153 224.321 3.28142 223.451 4.59034 223.451C5.14092 223.451 5.69667 223.277 5.82658 223.064C5.95598 222.851 6.34778 218.734 6.69782 213.913C7.04735 209.093 7.49688 204.705 7.69587 204.161C7.89538 203.617 8.34286 207.097 8.69084 211.894C9.37134 221.283 9.65694 223.452 10.2008 223.377C11.9686 223.132 12.4516 224.217 10.8071 224.739C9.37185 225.195 9.5162 226.028 11.0303 226.028C11.882 226.028 12.3975 226.4 12.6377 227.188C12.8321 227.826 13.2888 228.696 13.6528 229.121C14.0162 229.547 14.6055 230.881 14.9622 232.086C15.3184 233.291 15.9211 234.277 16.3016 234.277C16.682 234.277 16.9934 234.625 16.9934 235.05C16.9934 235.475 17.3414 235.823 17.7667 235.823C18.192 235.823 18.54 236.03 18.54 236.282C18.54 236.534 18.9457 236.707 19.4421 236.668C20.2732 236.602 20.3551 237.52 20.483 248.325C20.6005 258.278 20.7371 260.053 21.3852 260.053C21.8048 260.053 22.1487 259.683 22.1487 259.231C22.1487 258.78 22.6126 258.288 23.1797 258.14C23.7468 257.992 24.2108 257.55 24.2108 257.157C24.2108 255.979 26.5177 256.347 27.8194 257.733C28.4855 258.442 29.5568 259.022 30.2007 259.022H31.3714L31.3781 249.657C31.3822 243.317 31.5704 240.178 31.9607 239.937C32.2777 239.741 32.669 238.599 32.8298 237.4C32.9907 236.2 33.4418 235.096 33.8325 234.946C34.4094 234.725 34.5192 232.652 34.4192 223.856C34.3109 214.33 34.1867 212.912 33.3779 211.979C32.8726 211.397 32.4592 210.624 32.4592 210.262C32.4592 209.086 34.0418 207.985 35.7323 207.985C36.7504 207.985 37.7263 207.586 38.2733 206.948C39.2487 205.808 39.4559 204.376 38.6455 204.376C38.362 204.376 38.13 204.028 38.13 203.603C38.13 202.99 38.8713 202.83 41.7082 202.83C45.3138 202.83 46.6078 203.393 45.0303 204.275C44.2415 204.717 44.2477 204.875 45.1159 206.344C45.8763 207.631 46.4444 207.964 48.091 208.089C49.4705 208.193 50.3562 208.591 50.8392 209.322C51.4656 210.27 51.4259 210.56 50.5119 211.723C49.5432 212.954 49.4715 213.794 49.4715 223.919C49.4715 230.824 49.6597 234.792 49.9871 234.792C50.2706 234.792 50.5026 235.365 50.5026 236.066C50.5026 236.766 50.9521 238.139 51.5022 239.118C52.0517 240.096 52.5735 241.838 52.6621 242.989L52.8225 245.08L57.5235 239.034C60.1094 235.708 62.7185 232.176 63.3217 231.184L64.4182 229.379L64.4197 241.349C64.4218 251.964 64.5125 253.284 65.2234 253.011C65.7173 252.822 65.9648 252.218 65.8678 251.438C65.7379 250.393 66.5169 249.513 70.3503 246.375L74.9901 242.577L75.152 244.989C75.2453 246.378 75.0813 247.478 74.7653 247.583C74.4637 247.684 74.2168 248.791 74.2168 250.043C74.2168 252.302 74.2312 252.32 76.0211 252.32H77.8255V246.134C77.8255 241.856 78.0064 239.947 78.4116 239.947C78.8163 239.947 78.9153 238.922 78.7318 236.637C78.5859 234.816 78.6684 233.125 78.9158 232.877C79.1633 232.63 79.52 225.536 79.7097 217.113L80.0536 201.799H81.2491H82.4446L82.5838 190.844L82.723 179.889L83.1751 190.844C83.5865 200.799 83.7107 201.799 84.5376 201.799C85.0382 201.799 85.5635 202.099 85.7043 202.466C85.845 202.833 85.9796 209.733 86.0033 217.798C86.0311 227.337 86.2311 232.525 86.5755 232.639C86.8699 232.738 87.1049 234.4 87.1049 236.382C87.1049 238.415 87.3266 239.947 87.6205 239.947C87.9282 239.947 88.1721 242.284 88.2262 245.747C88.2757 248.937 88.4051 250.561 88.5134 249.356C88.7675 246.536 89.6826 246.498 89.6826 249.307V251.449L90.7889 250.467C91.589 249.757 91.9581 249.664 92.122 250.132C92.2463 250.488 92.5602 250.649 92.8195 250.488C93.0789 250.328 93.2913 250.53 93.2913 250.938C93.2913 251.345 93.6392 251.967 94.0646 252.32C95.3642 253.399 96.3169 252.062 96.4891 248.92C96.5731 247.381 96.8742 246.132 97.1577 246.145C97.9537 246.18 98.3073 242.424 97.6444 240.979C96.785 239.105 97.6356 236.617 99.6652 235.069C100.608 234.349 101.589 233.769 101.846 233.78C102.89 233.821 105.43 236.423 105.968 238.002C106.479 239.504 106.585 239.024 106.927 233.633C107.141 230.268 107.519 227.704 107.777 227.864C108.032 228.022 108.242 230.894 108.242 234.247C108.242 239.909 108.315 240.362 109.273 240.613C110.267 240.872 110.304 241.316 110.304 252.853V264.824L112.612 262.696C113.881 261.526 115.11 260.569 115.343 260.569C115.575 260.569 116.671 261.496 117.779 262.631C118.886 263.765 119.919 264.693 120.074 264.693C120.291 264.693 120.64 249.866 120.617 241.623C120.616 240.934 120.928 240.463 121.387 240.463C121.998 240.463 122.174 239.677 122.221 236.725C122.254 234.67 122.434 231.48 122.622 229.637L122.963 226.286L123.353 231.441C123.918 238.924 124.206 240.463 125.041 240.463C125.656 240.463 125.779 243.929 125.829 262.76C125.861 275.023 126.058 284.178 126.266 283.104C126.812 280.284 129.085 278.096 131.467 278.096C132.583 278.096 133.903 278.521 134.674 279.128C136.356 280.45 137.627 280.454 137.627 279.137C137.627 278.478 138.083 278.002 138.915 277.793C139.624 277.615 140.204 277.146 140.204 276.752C140.204 276.357 140.436 276.034 140.72 276.034C141.042 276.034 141.235 272.923 141.235 267.731C141.235 259.627 141.266 259.392 142.524 257.897C143.757 256.432 143.813 256.067 143.813 249.548C143.813 244.987 143.611 242.529 143.203 242.121C142.867 241.786 142.693 241.436 142.816 241.345C142.939 241.252 144.02 240.422 145.218 239.498C147.541 237.708 147.733 237.725 150.31 239.947L151.803 241.236L151.652 250.644L151.501 260.051L152.768 259.474C153.877 258.969 154.116 258.356 154.679 254.571C155.208 251.016 155.2 250.017 154.635 248.961C154.022 247.818 154.07 247.546 155.066 246.485C155.682 245.83 156.2 244.845 156.218 244.296C156.245 243.461 156.331 243.501 156.747 244.54C157.021 245.223 157.64 246.072 158.124 246.426C158.9 246.993 158.925 247.29 158.339 248.911C157.81 250.373 157.796 251.595 158.269 254.828C158.782 258.336 159.036 258.981 160.102 259.467L161.341 260.031V249.732C161.341 239.776 161.375 239.432 162.372 239.432C162.945 239.432 163.403 239.088 163.403 238.659C163.403 238.178 163.889 237.885 164.692 237.885C165.637 237.885 165.98 237.611 165.98 236.854C165.98 236.282 166.324 235.823 166.754 235.823C167.348 235.823 167.527 236.482 167.527 238.659C167.527 240.218 167.759 241.494 168.043 241.494C168.326 241.494 168.558 241.146 168.558 240.721C168.558 240.295 168.906 239.947 169.331 239.947C169.851 239.947 170.105 240.467 170.105 241.532C170.105 242.762 170.306 243.078 171.007 242.945C171.695 242.814 171.948 242.163 172.071 240.204C172.161 238.791 172.543 237.285 172.92 236.858C173.298 236.431 173.692 235.617 173.796 235.05C174.162 233.055 175.508 233.886 175.676 236.21C175.784 237.702 176.072 238.401 176.578 238.401C177.037 238.401 177.335 238.943 177.357 239.819C177.391 241.217 177.399 241.22 177.955 240.068C178.422 239.1 178.194 238.153 176.631 234.555C175.593 232.165 174.744 230.006 174.744 229.756C174.744 229.506 174.138 228.739 173.396 228.051C171.583 226.372 163.516 215.543 155.279 203.734L148.539 194.07L133.674 180.916L118.81 167.762L118.809 159.906C118.809 155.585 118.607 149.479 118.362 146.337L117.915 140.624L122.236 137.2L126.557 133.776L127.495 128.607C128.011 125.765 128.549 123.439 128.69 123.439C128.832 123.439 131.686 124.855 135.032 126.587L141.118 129.735L141.487 136.145L141.857 142.556L146.97 146.74C149.918 149.153 152.211 151.436 152.386 152.133C152.553 152.798 152.206 155.139 151.615 157.335C150.174 162.697 149.338 172.92 150.262 173.892C150.82 174.481 151.487 173.894 154.289 170.35C157.265 166.587 157.715 165.716 158.241 162.698C158.779 159.611 160.041 156.91 162.434 153.729L163.27 152.617L164.11 154.242C164.572 155.135 164.949 156.35 164.949 156.943C164.949 157.535 165.404 158.91 165.959 159.999C166.514 161.087 167.121 163.456 167.308 165.263C167.778 169.809 168.09 170.202 169.614 168.169C170.544 166.93 170.95 165.599 171.149 163.134L171.42 159.783L172.315 161.793C172.807 162.898 173.569 165.19 174.008 166.885C174.447 168.58 175.179 170.536 175.635 171.231C176.609 172.718 177 172.279 177.777 168.818C178.459 165.785 177.508 153.501 176.466 151.877C176.041 151.214 175.81 150.555 175.953 150.412C176.371 149.993 177.543 150.835 180.679 153.808C182.892 155.906 183.864 157.304 184.602 159.451C185.143 161.021 185.987 162.898 186.48 163.622C186.972 164.346 187.617 166.33 187.913 168.032L188.451 171.125L189.331 169.475C190.471 167.336 190.489 161.671 189.375 154.967L188.54 149.94L183.613 147.129C180.063 145.103 176.757 142.55 171.779 137.989C167.98 134.508 162.477 129.557 159.551 126.987C154.888 122.893 153.802 121.603 150.769 116.561C147.836 111.684 146.132 109.622 139.579 103.016L131.85 95.2244L130.936 90.6434L130.023 86.063L131.675 82.712L133.327 79.3611L132.411 77.0413C130.082 71.138 131.504 68.7696 139.328 65.5146L141.288 64.699L142.341 66.4843C142.92 67.4659 144.785 69.4311 146.484 70.8508C149.129 73.0614 149.889 73.4326 151.768 73.4326C153.442 73.4326 154.698 73.9074 157.057 75.4323C158.759 76.5319 162.229 78.1084 164.768 78.9353C169.059 80.3319 169.478 80.3819 170.687 79.6421C173.842 77.7099 177.054 72.4015 175.068 72.4015C173.997 72.4015 173.467 70.2162 174.203 68.8408C174.739 67.8396 174.648 67.7618 172.94 67.7618C171.28 67.7618 171.152 67.6638 171.633 66.7648C172.453 65.2326 172.297 65.0295 170.565 65.3759C169.042 65.6801 168.98 65.6291 169.302 64.3418C169.603 63.1447 169.514 63.0215 168.534 63.2777C167.622 63.5164 167.473 63.3855 167.694 62.54C167.919 61.6781 167.74 61.5378 166.585 61.6729C165.394 61.8116 165.231 61.6667 165.38 60.6022C165.476 59.9253 165.244 59.1664 164.865 58.9164C164.324 58.5591 164.438 58.2421 165.393 57.441C166.735 56.3156 168.043 56.098 168.043 57.0002C168.043 57.3755 168.614 57.4657 169.663 57.2559C170.589 57.0708 171.581 57.1786 171.976 57.5069C172.358 57.8235 173.049 57.9364 173.514 57.758C173.979 57.5796 174.688 57.7059 175.089 58.039C175.642 58.4978 175.964 58.4998 176.416 58.0482C177.289 57.1749 177.677 57.3095 178.044 58.6112L178.371 59.7711L179.347 58.6112C180.6 57.1224 180.931 57.1492 180.931 58.7401C180.931 60.0418 181.632 60.463 182.22 59.5134C182.944 58.3405 184.024 59.0262 184.045 60.6733L184.066 62.3488L185.606 60.5444C186.556 59.4324 188.063 58.4431 189.535 57.9668C192.658 56.9558 193.523 54.8659 192.715 50.2808L192.18 47.2397L186.222 42.1726C182.944 39.3857 178.268 35.1017 175.829 32.6529C173.389 30.2042 169.457 26.6625 167.091 24.7829L162.788 21.3644H157.305C153.283 21.3644 150.158 21 145.574 19.9952L139.327 18.626L134.36 21.0262C131.628 22.3465 128.953 23.4265 128.417 23.4265C127.879 23.4265 123.41 24.0142 118.485 24.7329C113.56 25.451 108.429 26.1794 107.082 26.3511L104.633 26.6635V24.2107V21.7578L102.863 23.1074C101.889 23.8503 100.961 24.4576 100.801 24.4576C100.64 24.4576 100.509 22.8337 100.509 20.8489C100.509 17.0216 100.151 16.5762 98.1748 17.9439C95.558 19.7555 95.0234 19.5683 92.4071 15.9277L89.9403 12.4948L89.7919 16.8995L89.6434 21.3036L86.3002 20.0452C84.4613 19.3529 82.8467 18.7868 82.7111 18.7868C82.576 18.7868 82.4652 20.1127 82.4652 21.7336V24.6803L79.6298 21.88L76.7944 19.0796L76.7888 9.78262L76.7826 0.485626L74.9246 3.83655C73.9028 5.67955 72.1397 8.78044 71.0066 10.7271L68.9466 14.2662L65.0085 10.4667C62.8427 8.3773 59.5047 5.16712 57.5911 3.33391L54.1113 0V2.92973ZM64.4218 256.133C64.4218 257.544 64.5976 257.891 65.1951 257.662C65.6204 257.499 65.9684 257.025 65.9684 256.61C65.9684 256.195 65.6204 255.507 65.1951 255.082C64.5079 254.395 64.4218 254.511 64.4218 256.133ZM64.4218 261.452C64.4218 262.741 64.4873 262.786 65.2559 262.017C65.7147 261.558 65.9333 260.929 65.741 260.618C65.1085 259.594 64.4218 260.029 64.4218 261.452ZM64.4218 265.407C64.4218 266.383 64.628 266.644 65.2204 266.416C66.1344 266.065 66.0292 264.627 65.0662 264.306C64.6631 264.172 64.4218 264.583 64.4218 265.407ZM151.62 269.874L151.695 274.23L152.211 270.464C152.588 267.712 152.567 266.539 152.136 266.108C151.693 265.665 151.564 266.602 151.62 269.874ZM160.348 267.657C160.369 268.437 160.572 270.119 160.799 271.395C161.19 273.595 161.215 273.522 161.276 269.977C161.314 267.786 161.127 266.239 160.825 266.239C160.542 266.239 160.327 266.877 160.348 267.657ZM64.4218 269.091C64.4218 269.925 65.2276 270.115 65.6771 269.387C65.8343 269.132 65.6158 268.792 65.192 268.629C64.7244 268.45 64.4218 268.631 64.4218 269.091Z" fill="white" fill-opacity="0.1"/>
</svg>
