<svg width="1374" height="674" viewBox="0 0 1374 674" fill="none" xmlns="http://www.w3.org/2000/svg">
<g filter="url(#filter0_d)">
<rect x="147" y="26" width="1110" height="614" rx="40" fill="white"/>
</g>
<rect x="207" y="256" width="199" height="279" rx="16" fill="#EBEBEB"/>
<rect x="471" y="256" width="198" height="279" rx="16" fill="#EBEBEB"/>
<rect x="735" y="256" width="198" height="279" rx="16" fill="#EBEBEB"/>
<rect x="998" y="256" width="199" height="279" rx="16" fill="#EBEBEB"/>
<path d="M227.626 182V178.508H212.758V157.88H208.87V182H227.626ZM234.028 162.02V157.88H230.14V162.02H234.028ZM234.028 182V164.108H230.14V182H234.028ZM249.112 182L257.536 164.108H253.324L246.952 178.22H246.664L240.292 164.108H236.008L244.36 182H249.112ZM268.53 182.36C273.858 182.36 277.602 179.732 277.602 175.916V175.592H273.714V175.88C273.714 178.004 272.166 179.228 268.422 179.228C264.282 179.228 262.59 177.392 262.446 173.936H277.638C277.746 173.396 277.782 172.892 277.782 172.244C277.782 166.808 274.002 163.748 268.458 163.748C262.626 163.748 258.81 167.492 258.81 173.072C258.81 179.048 262.662 182.36 268.53 182.36ZM268.386 166.808C272.202 166.808 274.11 168.392 274.11 171.704V171.776H262.482C262.698 168.572 264.426 166.808 268.386 166.808ZM289.367 182L292.139 175.736H304.883L307.655 182H312.047L301.283 157.88H295.811L285.047 182H289.367ZM296.963 164.9L298.367 161.48H298.655L300.059 164.9L303.335 172.244H293.687L296.963 164.9ZM321.299 182.36C325.907 182.36 328.283 179.48 328.859 176.456H329.075V182H332.639V164.108H328.787V172.964C328.787 176.852 326.951 178.868 322.991 178.868C319.211 178.868 317.663 177.176 317.663 173.828V164.108H313.811V174.872C313.811 179.012 316.259 182.36 321.299 182.36ZM345.207 182.36C350.571 182.36 354.495 179.336 354.495 174.872V174.476H350.643V174.728C350.643 177.5 348.627 178.868 345.135 178.868C341.103 178.868 339.303 176.924 339.303 173.072C339.303 169.148 341.103 167.24 345.135 167.24C348.627 167.24 350.643 168.608 350.643 171.38V171.596H354.495V171.236C354.495 166.772 350.571 163.748 345.207 163.748C339.303 163.748 335.451 167.492 335.451 173.072C335.451 178.58 339.303 182.36 345.207 182.36ZM369.106 182V178.508H365.866C363.634 178.508 362.626 177.932 362.626 175.736V167.348H369.106V164.108H362.626V160.184H358.774V164.108H355.75V167.348H358.774V175.952C358.774 180.308 361.15 182 365.002 182H369.106ZM375.426 162.02V157.88H371.538V162.02H375.426ZM375.426 182V164.108H371.538V182H375.426ZM388.171 182.36C394.147 182.36 398.143 178.58 398.143 173.072C398.143 167.492 394.147 163.748 388.171 163.748C382.231 163.748 378.235 167.492 378.235 173.072C378.235 178.58 382.231 182.36 388.171 182.36ZM388.171 178.904C383.851 178.904 382.051 176.852 382.051 173.072C382.051 169.256 383.851 167.168 388.171 167.168C392.527 167.168 394.327 169.256 394.327 173.072C394.327 176.852 392.527 178.904 388.171 178.904ZM404.852 182V173.144C404.852 169.256 406.616 167.24 410.54 167.24C414.248 167.24 415.76 168.932 415.76 172.28V182H419.648V171.236C419.648 167.096 417.2 163.748 412.232 163.748C407.696 163.748 405.32 166.628 404.78 169.652H404.528V164.108H400.964V182H404.852ZM431.573 182.36C436.613 182.36 439.925 180.38 439.925 177.032C439.925 174.08 437.981 172.64 433.733 172.1L429.593 171.524C426.893 171.164 426.173 170.66 426.173 169.256C426.173 167.564 427.325 166.844 430.601 166.844C434.561 166.844 435.641 167.96 435.641 170.084V170.3H439.492V170.192C439.492 165.944 436.181 163.748 430.709 163.748C425.201 163.748 422.357 165.98 422.357 169.112C422.357 172.1 424.409 173.54 427.793 173.972L432.689 174.62C435.245 174.98 436.109 175.448 436.109 176.924C436.109 178.508 435.065 179.228 431.573 179.228C427.829 179.228 426.425 178.472 426.425 176.132V175.844H422.537V175.952C422.537 180.092 425.812 182.36 431.573 182.36Z" fill="black"/>
<circle cx="464" cy="170.5" r="6" fill="#B00020"/>
<circle cx="208" cy="60" r="8" fill="#1F2227"/>
<circle cx="234" cy="60" r="8" fill="#1F2227"/>
<circle cx="260" cy="60" r="8" fill="#1F2227"/>
<g filter="url(#filter1_d)">
<rect x="30" y="411" width="540" height="167" rx="20" fill="white"/>
<path d="M305 482C305 476.477 309.477 472 315 472H520C525.523 472 530 476.477 530 482V515C530 520.523 525.523 525 520 525H315C309.477 525 305 520.523 305 515V482Z" fill="#1F2227"/>
<path d="M376.036 504V500.094H380.302C382.912 500.094 384.748 498.6 384.748 496.008C384.748 493.434 382.912 491.94 380.302 491.94H374.758V504H376.036ZM380.194 493.11C382.318 493.11 383.452 493.992 383.452 496.008C383.452 498.06 382.318 498.924 380.194 498.924H376.036V493.11H380.194ZM387.409 504V491.94H386.131V504H387.409ZM392.025 504.18C394.095 504.18 395.661 503.244 396.183 501.606H396.273V504H397.425V498.438C397.425 496.476 396.273 494.928 393.573 494.928C390.837 494.928 389.289 496.458 389.289 498.33V498.402H390.567V498.33C390.567 496.764 391.575 496.08 393.483 496.08C395.427 496.08 396.183 496.764 396.183 498.492V499.176L391.953 499.644C390.297 499.824 389.091 500.454 389.091 501.912C389.091 503.352 390.279 504.18 392.025 504.18ZM390.369 501.822C390.369 500.904 391.017 500.58 392.349 500.454L396.183 500.022V500.094C396.183 502.236 394.473 503.19 392.313 503.19C390.963 503.19 390.369 502.722 390.369 501.822ZM403.773 504.18C406.257 504.18 408.201 502.704 408.201 500.562V500.418H406.941V500.526C406.941 502.11 405.789 503.01 403.755 503.01C401.379 503.01 400.353 501.732 400.353 499.554C400.353 497.376 401.379 496.098 403.755 496.098C405.789 496.098 406.941 496.998 406.941 498.582V498.69H408.201V498.546C408.201 496.404 406.257 494.928 403.773 494.928C400.929 494.928 399.075 496.854 399.075 499.554C399.075 502.254 400.929 504.18 403.773 504.18ZM414.144 504.18C416.628 504.18 418.464 502.902 418.464 501.048V500.922H417.186V501.048C417.186 502.344 416.214 503.118 414.126 503.118C411.768 503.118 410.742 501.912 410.67 499.914H418.5C418.554 499.68 418.59 499.41 418.59 499.086C418.59 496.44 416.736 494.928 414.126 494.928C411.264 494.928 409.464 496.854 409.464 499.554C409.464 502.38 411.282 504.18 414.144 504.18ZM414.108 495.99C416.196 495.99 417.384 496.98 417.384 498.852C417.384 498.942 417.384 499.032 417.384 499.122H410.67C410.76 497.178 411.804 495.99 414.108 495.99ZM426.056 504.18C428.126 504.18 429.692 503.244 430.214 501.606H430.304V504H431.456V498.438C431.456 496.476 430.304 494.928 427.604 494.928C424.868 494.928 423.32 496.458 423.32 498.33V498.402H424.598V498.33C424.598 496.764 425.606 496.08 427.514 496.08C429.458 496.08 430.214 496.764 430.214 498.492V499.176L425.984 499.644C424.328 499.824 423.122 500.454 423.122 501.912C423.122 503.352 424.31 504.18 426.056 504.18ZM424.4 501.822C424.4 500.904 425.048 500.58 426.38 500.454L430.214 500.022V500.094C430.214 502.236 428.504 503.19 426.344 503.19C424.994 503.19 424.4 502.722 424.4 501.822ZM438.013 504V501.372H438.103C438.517 503.154 439.939 504.18 441.919 504.18C444.817 504.18 446.347 502.254 446.347 499.554C446.347 496.854 444.817 494.928 442.027 494.928C439.885 494.928 438.607 496.062 438.229 497.592H438.139V491.94H436.861V504H438.013ZM438.139 499.698V499.536C438.139 497.34 439.399 496.116 441.649 496.116C443.701 496.116 445.051 496.98 445.051 499.554C445.051 502.128 443.737 503.01 441.613 503.01C439.471 503.01 438.139 501.804 438.139 499.698ZM449.196 493.974V491.94H447.918V493.974H449.196ZM449.196 504V495.108H447.918V504H449.196ZM455.18 504.18C457.142 504.18 458.582 503.154 459.014 501.372H459.086V504H460.256V491.94H458.978V497.592H458.888C458.492 496.062 457.178 494.928 455.072 494.928C452.336 494.928 450.752 496.854 450.752 499.554C450.752 502.254 452.336 504.18 455.18 504.18ZM452.048 499.554C452.048 496.98 453.434 496.116 455.468 496.116C457.664 496.116 458.978 497.34 458.978 499.536V499.698C458.978 501.804 457.592 503.01 455.504 503.01C453.416 503.01 452.048 502.128 452.048 499.554Z" fill="white" fill-opacity="0.87"/>
<path d="M106.42 520V516.508H96.088L90.256 516.904C90.256 514.168 91.372 513.016 94.612 511.9L99.688 510.352C103.936 509.056 106.492 506.968 106.492 503.008C106.492 498.76 103.612 495.52 96.772 495.52C89.248 495.52 86.188 499.552 86.188 504.016V504.376H90.004V503.944C90.004 500.776 91.804 499.084 96.628 499.084C100.948 499.084 102.604 500.38 102.604 502.936C102.604 505.06 101.596 506.032 98.716 507.076L92.956 509.056C87.988 510.748 86.224 512.98 86.224 517.444V520H106.42ZM120.242 520.36C127.514 520.36 131.834 515.608 131.834 507.94C131.834 500.308 127.514 495.52 120.242 495.52C112.97 495.52 108.65 500.308 108.65 507.94C108.65 515.608 112.97 520.36 120.242 520.36ZM120.242 516.616C115.094 516.616 112.754 513.952 112.754 507.94C112.754 501.928 115.094 499.264 120.242 499.264C125.39 499.264 127.694 501.928 127.694 507.94C127.694 513.952 125.39 516.616 120.242 516.616ZM145.59 520.36C152.862 520.36 157.182 515.608 157.182 507.94C157.182 500.308 152.862 495.52 145.59 495.52C138.318 495.52 133.998 500.308 133.998 507.94C133.998 515.608 138.318 520.36 145.59 520.36ZM145.59 516.616C140.442 516.616 138.102 513.952 138.102 507.94C138.102 501.928 140.442 499.264 145.59 499.264C150.738 499.264 153.042 501.928 153.042 507.94C153.042 513.952 150.738 516.616 145.59 516.616ZM177.414 520C184.902 520 189.618 515.392 189.618 507.94C189.618 500.488 184.902 495.88 177.414 495.88H166.434V520H177.414ZM177.414 499.372C182.994 499.372 185.514 501.748 185.514 507.94C185.514 514.132 182.994 516.508 177.414 516.508H170.286V499.372H177.414ZM196.403 520V505.204L196.259 501.712H196.547L198.023 505.204L204.683 518.56H209.363L216.023 505.204L217.499 501.712H217.787L217.643 505.204V520H221.531V495.88H216.239L209.363 509.848L207.239 514.852H206.951L204.755 509.848L197.807 495.88H192.515V520H196.403ZM246.38 520V516.508H229.964V516.22L245.984 499.372V495.88H224.996V499.372H240.26V499.66L224.528 516.508V520H246.38Z" fill="black" fill-opacity="0.87"/>
<path d="M91.012 481.252C89.536 481.252 88.354 480.82 87.466 479.956C86.59 479.08 86.152 477.802 86.152 476.122V473.278C86.152 471.598 86.59 470.326 87.466 469.462C88.354 468.586 89.536 468.148 91.012 468.148C92.476 468.148 93.592 468.562 94.36 469.39C95.14 470.206 95.53 471.322 95.53 472.738V472.828H94.378V472.702C94.378 471.67 94.102 470.83 93.55 470.182C93.01 469.522 92.164 469.192 91.012 469.192C89.848 469.192 88.936 469.546 88.276 470.254C87.628 470.962 87.304 471.958 87.304 473.242V476.158C87.304 477.442 87.628 478.438 88.276 479.146C88.936 479.854 89.848 480.208 91.012 480.208C92.164 480.208 93.01 479.884 93.55 479.236C94.102 478.576 94.378 477.73 94.378 476.698V476.428H95.53V476.662C95.53 478.078 95.14 479.2 94.36 480.028C93.592 480.844 92.476 481.252 91.012 481.252ZM101.481 481.18C100.857 481.18 100.275 481.048 99.7353 480.784C99.2073 480.52 98.7813 480.124 98.4573 479.596C98.1453 479.056 97.9893 478.384 97.9893 477.58V472.252H99.0693V477.508C99.0693 478.456 99.3093 479.146 99.7893 479.578C100.269 479.998 100.911 480.208 101.715 480.208C102.615 480.208 103.365 479.914 103.965 479.326C104.565 478.726 104.865 477.826 104.865 476.626V472.252H105.945V481H104.901V479.38H104.685C104.469 479.848 104.115 480.268 103.623 480.64C103.131 481 102.417 481.18 101.481 481.18ZM109.119 481V472.252H110.163V473.35H110.379C110.547 472.954 110.793 472.666 111.117 472.486C111.453 472.306 111.915 472.216 112.503 472.216H113.529V473.224H112.377C111.717 473.224 111.189 473.41 110.793 473.782C110.397 474.154 110.199 474.736 110.199 475.528V481H109.119ZM115.764 481V472.252H116.808V473.35H117.024C117.192 472.954 117.438 472.666 117.762 472.486C118.098 472.306 118.56 472.216 119.148 472.216H120.174V473.224H119.022C118.362 473.224 117.834 473.41 117.438 473.782C117.042 474.154 116.844 474.736 116.844 475.528V481H115.764ZM126.124 481.252C125.224 481.252 124.438 481.066 123.766 480.694C123.106 480.31 122.59 479.776 122.218 479.092C121.846 478.408 121.66 477.622 121.66 476.734V476.518C121.66 475.618 121.846 474.832 122.218 474.16C122.59 473.476 123.1 472.948 123.748 472.576C124.408 472.192 125.158 472 125.998 472C126.814 472 127.534 472.174 128.158 472.522C128.794 472.858 129.292 473.35 129.652 473.998C130.012 474.634 130.192 475.396 130.192 476.284V476.86H122.74C122.776 477.952 123.106 478.798 123.73 479.398C124.366 479.986 125.164 480.28 126.124 480.28C126.94 480.28 127.57 480.094 128.014 479.722C128.47 479.35 128.818 478.894 129.058 478.354L130.03 478.786C129.85 479.182 129.598 479.572 129.274 479.956C128.962 480.328 128.554 480.64 128.05 480.892C127.546 481.132 126.904 481.252 126.124 481.252ZM122.758 475.924H129.094C129.046 474.976 128.74 474.25 128.176 473.746C127.612 473.23 126.886 472.972 125.998 472.972C125.122 472.972 124.396 473.23 123.82 473.746C123.244 474.25 122.89 474.976 122.758 475.924ZM132.85 481V472.252H133.894V473.872H134.11C134.326 473.404 134.68 472.99 135.172 472.63C135.664 472.258 136.378 472.072 137.314 472.072C137.95 472.072 138.532 472.204 139.06 472.468C139.588 472.732 140.008 473.134 140.32 473.674C140.644 474.202 140.806 474.868 140.806 475.672V481H139.726V475.744C139.726 474.784 139.486 474.094 139.006 473.674C138.526 473.254 137.884 473.044 137.08 473.044C136.18 473.044 135.43 473.344 134.83 473.944C134.23 474.532 133.93 475.426 133.93 476.626V481H132.85ZM146.793 481C146.325 481 145.971 480.88 145.731 480.64C145.503 480.4 145.389 480.064 145.389 479.632V473.224H142.581V472.252H145.389V468.976H146.469V472.252H149.529V473.224H146.469V479.488C146.469 479.848 146.649 480.028 147.009 480.028H149.061V481H146.793ZM155.86 481V479.956H157.66V469.444H155.86V468.4H162.106C162.826 468.4 163.468 468.532 164.032 468.796C164.596 469.06 165.034 469.432 165.346 469.912C165.67 470.38 165.832 470.926 165.832 471.55V471.694C165.832 472.282 165.718 472.768 165.49 473.152C165.262 473.536 164.986 473.836 164.662 474.052C164.338 474.268 164.02 474.424 163.708 474.52V474.736C164.02 474.808 164.338 474.958 164.662 475.186C164.998 475.402 165.274 475.702 165.49 476.086C165.718 476.47 165.832 476.956 165.832 477.544V477.724C165.832 478.408 165.664 478.996 165.328 479.488C165.004 479.98 164.554 480.358 163.978 480.622C163.414 480.874 162.772 481 162.052 481H155.86ZM158.812 479.956H161.944C162.844 479.956 163.522 479.746 163.978 479.326C164.446 478.906 164.68 478.342 164.68 477.634V477.49C164.68 476.782 164.446 476.218 163.978 475.798C163.522 475.378 162.844 475.168 161.944 475.168H158.812V479.956ZM158.812 474.124H162.016C162.844 474.124 163.492 473.92 163.96 473.512C164.44 473.092 164.68 472.546 164.68 471.874V471.694C164.68 471.022 164.44 470.482 163.96 470.074C163.492 469.654 162.844 469.444 162.016 469.444H158.812V474.124ZM168.463 481V472.252H169.543V481H168.463ZM169.003 470.74C168.739 470.74 168.517 470.65 168.337 470.47C168.157 470.29 168.067 470.068 168.067 469.804C168.067 469.528 168.157 469.306 168.337 469.138C168.517 468.958 168.739 468.868 169.003 468.868C169.279 468.868 169.501 468.958 169.669 469.138C169.849 469.306 169.939 469.528 169.939 469.804C169.939 470.068 169.849 470.29 169.669 470.47C169.501 470.65 169.279 470.74 169.003 470.74ZM176.497 481.252C175.717 481.252 175.009 481.072 174.373 480.712C173.737 480.34 173.227 479.818 172.843 479.146C172.471 478.462 172.285 477.658 172.285 476.734V476.518C172.285 475.594 172.471 474.796 172.843 474.124C173.215 473.44 173.719 472.918 174.355 472.558C175.003 472.186 175.717 472 176.497 472C177.145 472 177.691 472.09 178.135 472.27C178.579 472.438 178.939 472.66 179.215 472.936C179.503 473.2 179.725 473.482 179.881 473.782H180.097V468.4H181.177V481H180.133V479.398H179.917C179.665 479.878 179.269 480.31 178.729 480.694C178.201 481.066 177.457 481.252 176.497 481.252ZM176.749 480.28C177.745 480.28 178.549 479.962 179.161 479.326C179.785 478.69 180.097 477.814 180.097 476.698V476.554C180.097 475.438 179.785 474.562 179.161 473.926C178.549 473.29 177.745 472.972 176.749 472.972C175.765 472.972 174.961 473.29 174.337 473.926C173.713 474.562 173.401 475.438 173.401 476.554V476.698C173.401 477.814 173.713 478.69 174.337 479.326C174.961 479.962 175.765 480.28 176.749 480.28Z" fill="black" fill-opacity="0.6"/>
</g>
<g filter="url(#filter2_d)">
<rect x="1114" y="165" width="230" height="141" rx="17" fill="white"/>
<path d="M1154 204.6L1158.12 192H1160.17L1164.3 204.6H1163.09L1162.01 201.252H1156.29L1155.21 204.6H1154ZM1156.61 200.208H1161.69L1159.26 192.684H1159.04L1156.61 200.208Z" fill="black" fill-opacity="0.87"/>
<path d="M1169.75 204.78C1169.12 204.78 1168.54 204.648 1168 204.384C1167.47 204.12 1167.05 203.724 1166.72 203.196C1166.41 202.656 1166.26 201.984 1166.26 201.18V195.852H1167.34V201.108C1167.34 202.056 1167.58 202.746 1168.06 203.178C1168.54 203.598 1169.18 203.808 1169.98 203.808C1170.88 203.808 1171.63 203.514 1172.23 202.926C1172.83 202.326 1173.13 201.426 1173.13 200.226V195.852H1174.21V204.6H1173.17V202.98H1172.95C1172.74 203.448 1172.38 203.868 1171.89 204.24C1171.4 204.6 1170.68 204.78 1169.75 204.78Z" fill="black" fill-opacity="0.87"/>
<path d="M1181.38 204.852C1180.53 204.852 1179.77 204.672 1179.1 204.312C1178.44 203.94 1177.91 203.412 1177.53 202.728C1177.15 202.044 1176.95 201.24 1176.95 200.316V200.136C1176.95 199.2 1177.15 198.396 1177.53 197.724C1177.91 197.04 1178.44 196.518 1179.1 196.158C1179.77 195.786 1180.53 195.6 1181.38 195.6C1182.22 195.6 1182.93 195.762 1183.51 196.086C1184.09 196.398 1184.55 196.812 1184.87 197.328C1185.21 197.832 1185.42 198.366 1185.5 198.93L1184.44 199.146C1184.38 198.678 1184.23 198.252 1183.99 197.868C1183.75 197.472 1183.42 197.16 1182.98 196.932C1182.55 196.692 1182.02 196.572 1181.38 196.572C1180.75 196.572 1180.18 196.722 1179.67 197.022C1179.17 197.31 1178.77 197.724 1178.47 198.264C1178.18 198.792 1178.03 199.422 1178.03 200.154V200.298C1178.03 201.03 1178.18 201.666 1178.47 202.206C1178.77 202.734 1179.17 203.148 1179.67 203.448C1180.18 203.736 1180.75 203.88 1181.38 203.88C1182.34 203.88 1183.07 203.634 1183.58 203.142C1184.08 202.638 1184.39 202.026 1184.51 201.306L1185.58 201.522C1185.47 202.086 1185.24 202.626 1184.89 203.142C1184.56 203.646 1184.09 204.06 1183.51 204.384C1182.93 204.696 1182.22 204.852 1181.38 204.852Z" fill="black" fill-opacity="0.87"/>
<path d="M1191.01 204.6C1190.55 204.6 1190.19 204.48 1189.95 204.24C1189.72 204 1189.61 203.664 1189.61 203.232V196.824H1186.8V195.852H1189.61V192.576H1190.69V195.852H1193.75V196.824H1190.69V203.088C1190.69 203.448 1190.87 203.628 1191.23 203.628H1193.28V204.6H1191.01Z" fill="black" fill-opacity="0.87"/>
<path d="M1196.16 204.6V195.852H1197.24V204.6H1196.16ZM1196.7 194.34C1196.44 194.34 1196.21 194.25 1196.03 194.07C1195.85 193.89 1195.76 193.668 1195.76 193.404C1195.76 193.128 1195.85 192.906 1196.03 192.738C1196.21 192.558 1196.44 192.468 1196.7 192.468C1196.98 192.468 1197.2 192.558 1197.37 192.738C1197.55 192.906 1197.64 193.128 1197.64 193.404C1197.64 193.668 1197.55 193.89 1197.37 194.07C1197.2 194.25 1196.98 194.34 1196.7 194.34Z" fill="black" fill-opacity="0.87"/>
<path d="M1204.41 204.852C1203.52 204.852 1202.74 204.666 1202.07 204.294C1201.41 203.91 1200.89 203.382 1200.52 202.71C1200.16 202.026 1199.98 201.234 1199.98 200.334V200.118C1199.98 199.218 1200.16 198.432 1200.52 197.76C1200.89 197.076 1201.41 196.548 1202.07 196.176C1202.74 195.792 1203.52 195.6 1204.41 195.6C1205.3 195.6 1206.07 195.792 1206.73 196.176C1207.4 196.548 1207.92 197.076 1208.28 197.76C1208.65 198.432 1208.84 199.218 1208.84 200.118V200.334C1208.84 201.234 1208.65 202.026 1208.28 202.71C1207.92 203.382 1207.4 203.91 1206.73 204.294C1206.07 204.666 1205.3 204.852 1204.41 204.852ZM1204.41 203.88C1205.44 203.88 1206.26 203.556 1206.86 202.908C1207.46 202.248 1207.76 201.378 1207.76 200.298V200.154C1207.76 199.074 1207.46 198.21 1206.86 197.562C1206.26 196.902 1205.44 196.572 1204.41 196.572C1203.39 196.572 1202.57 196.902 1201.96 197.562C1201.36 198.21 1201.06 199.074 1201.06 200.154V200.298C1201.06 201.378 1201.36 202.248 1201.96 202.908C1202.57 203.556 1203.39 203.88 1204.41 203.88Z" fill="black" fill-opacity="0.87"/>
<path d="M1211.58 204.6V195.852H1212.62V197.472H1212.84C1213.05 197.004 1213.41 196.59 1213.9 196.23C1214.39 195.858 1215.1 195.672 1216.04 195.672C1216.68 195.672 1217.26 195.804 1217.79 196.068C1218.31 196.332 1218.73 196.734 1219.05 197.274C1219.37 197.802 1219.53 198.468 1219.53 199.272V204.6H1218.45V199.344C1218.45 198.384 1218.21 197.694 1217.73 197.274C1217.25 196.854 1216.61 196.644 1215.81 196.644C1214.91 196.644 1214.16 196.944 1213.56 197.544C1212.96 198.132 1212.66 199.026 1212.66 200.226V204.6H1211.58Z" fill="black" fill-opacity="0.87"/>
<path d="M1231.27 204.852C1230.37 204.852 1229.58 204.666 1228.91 204.294C1228.25 203.91 1227.74 203.376 1227.36 202.692C1226.99 202.008 1226.81 201.222 1226.81 200.334V200.118C1226.81 199.218 1226.99 198.432 1227.36 197.76C1227.74 197.076 1228.25 196.548 1228.89 196.176C1229.55 195.792 1230.3 195.6 1231.14 195.6C1231.96 195.6 1232.68 195.774 1233.3 196.122C1233.94 196.458 1234.44 196.95 1234.8 197.598C1235.16 198.234 1235.34 198.996 1235.34 199.884V200.46H1227.89C1227.92 201.552 1228.25 202.398 1228.88 202.998C1229.51 203.586 1230.31 203.88 1231.27 203.88C1232.09 203.88 1232.72 203.694 1233.16 203.322C1233.62 202.95 1233.96 202.494 1234.2 201.954L1235.18 202.386C1235 202.782 1234.74 203.172 1234.42 203.556C1234.11 203.928 1233.7 204.24 1233.2 204.492C1232.69 204.732 1232.05 204.852 1231.27 204.852ZM1227.9 199.524H1234.24C1234.19 198.576 1233.89 197.85 1233.32 197.346C1232.76 196.83 1232.03 196.572 1231.14 196.572C1230.27 196.572 1229.54 196.83 1228.97 197.346C1228.39 197.85 1228.04 198.576 1227.9 199.524Z" fill="black" fill-opacity="0.87"/>
<path d="M1238 204.6V195.852H1239.04V197.472H1239.26C1239.47 197.004 1239.83 196.59 1240.32 196.23C1240.81 195.858 1241.52 195.672 1242.46 195.672C1243.1 195.672 1243.68 195.804 1244.21 196.068C1244.73 196.332 1245.15 196.734 1245.47 197.274C1245.79 197.802 1245.95 198.468 1245.95 199.272V204.6H1244.87V199.344C1244.87 198.384 1244.63 197.694 1244.15 197.274C1243.67 196.854 1243.03 196.644 1242.23 196.644C1241.33 196.644 1240.58 196.944 1239.98 197.544C1239.38 198.132 1239.08 199.026 1239.08 200.226V204.6H1238Z" fill="black" fill-opacity="0.87"/>
<path d="M1252.8 204.852C1252.02 204.852 1251.31 204.672 1250.67 204.312C1250.04 203.94 1249.53 203.418 1249.14 202.746C1248.77 202.062 1248.59 201.258 1248.59 200.334V200.118C1248.59 199.194 1248.77 198.396 1249.14 197.724C1249.52 197.04 1250.02 196.518 1250.66 196.158C1251.3 195.786 1252.02 195.6 1252.8 195.6C1253.45 195.6 1253.99 195.69 1254.44 195.87C1254.88 196.038 1255.24 196.26 1255.52 196.536C1255.8 196.8 1256.03 197.082 1256.18 197.382H1256.4V192H1257.48V204.6H1256.43V202.998H1256.22C1255.97 203.478 1255.57 203.91 1255.03 204.294C1254.5 204.666 1253.76 204.852 1252.8 204.852ZM1253.05 203.88C1254.05 203.88 1254.85 203.562 1255.46 202.926C1256.09 202.29 1256.4 201.414 1256.4 200.298V200.154C1256.4 199.038 1256.09 198.162 1255.46 197.526C1254.85 196.89 1254.05 196.572 1253.05 196.572C1252.07 196.572 1251.26 196.89 1250.64 197.526C1250.01 198.162 1249.7 199.038 1249.7 200.154V200.298C1249.7 201.414 1250.01 202.29 1250.64 202.926C1251.26 203.562 1252.07 203.88 1253.05 203.88Z" fill="black" fill-opacity="0.87"/>
<path d="M1260.65 204.6V195.852H1261.73V204.6H1260.65ZM1261.19 194.34C1260.93 194.34 1260.71 194.25 1260.53 194.07C1260.35 193.89 1260.26 193.668 1260.26 193.404C1260.26 193.128 1260.35 192.906 1260.53 192.738C1260.71 192.558 1260.93 192.468 1261.19 192.468C1261.47 192.468 1261.69 192.558 1261.86 192.738C1262.04 192.906 1262.13 193.128 1262.13 193.404C1262.13 193.668 1262.04 193.89 1261.86 194.07C1261.69 194.25 1261.47 194.34 1261.19 194.34Z" fill="black" fill-opacity="0.87"/>
<path d="M1264.91 204.6V195.852H1265.95V197.472H1266.17C1266.38 197.004 1266.74 196.59 1267.23 196.23C1267.72 195.858 1268.44 195.672 1269.37 195.672C1270.01 195.672 1270.59 195.804 1271.12 196.068C1271.65 196.332 1272.07 196.734 1272.38 197.274C1272.7 197.802 1272.86 198.468 1272.86 199.272V204.6H1271.78V199.344C1271.78 198.384 1271.54 197.694 1271.06 197.274C1270.58 196.854 1269.94 196.644 1269.14 196.644C1268.24 196.644 1267.49 196.944 1266.89 197.544C1266.29 198.132 1265.99 199.026 1265.99 200.226V204.6H1264.91Z" fill="black" fill-opacity="0.87"/>
<path d="M1275.5 200.262V200.046C1275.5 199.122 1275.68 198.33 1276.06 197.67C1276.44 197.01 1276.95 196.5 1277.59 196.14C1278.22 195.78 1278.93 195.6 1279.71 195.6C1280.67 195.6 1281.41 195.792 1281.94 196.176C1282.48 196.548 1282.88 196.974 1283.13 197.454H1283.35V195.852H1284.35V206.832C1284.35 207.264 1284.24 207.6 1284.01 207.84C1283.78 208.08 1283.44 208.2 1282.97 208.2H1276.99V207.228H1282.75C1283.12 207.228 1283.31 207.048 1283.31 206.688V202.926H1283.09C1282.94 203.214 1282.72 203.496 1282.43 203.772C1282.15 204.048 1281.79 204.276 1281.35 204.456C1280.9 204.624 1280.36 204.708 1279.71 204.708C1278.93 204.708 1278.22 204.528 1277.57 204.168C1276.93 203.808 1276.43 203.298 1276.06 202.638C1275.68 201.966 1275.5 201.174 1275.5 200.262ZM1279.96 203.736C1280.96 203.736 1281.76 203.424 1282.37 202.8C1283 202.176 1283.31 201.318 1283.31 200.226V200.082C1283.31 198.978 1283 198.12 1282.37 197.508C1281.76 196.884 1280.96 196.572 1279.96 196.572C1278.98 196.572 1278.17 196.884 1277.55 197.508C1276.93 198.12 1276.61 198.978 1276.61 200.082V200.226C1276.61 201.318 1276.93 202.176 1277.55 202.8C1278.17 203.424 1278.98 203.736 1279.96 203.736Z" fill="black" fill-opacity="0.87"/>
<path d="M1292.15 204.6V195.852H1293.23V204.6H1292.15ZM1292.69 194.34C1292.43 194.34 1292.21 194.25 1292.03 194.07C1291.85 193.89 1291.76 193.668 1291.76 193.404C1291.76 193.128 1291.85 192.906 1292.03 192.738C1292.21 192.558 1292.43 192.468 1292.69 192.468C1292.97 192.468 1293.19 192.558 1293.36 192.738C1293.54 192.906 1293.63 193.128 1293.63 193.404C1293.63 193.668 1293.54 193.89 1293.36 194.07C1293.19 194.25 1292.97 194.34 1292.69 194.34Z" fill="black" fill-opacity="0.87"/>
<path d="M1296.41 204.6V195.852H1297.45V197.472H1297.67C1297.88 197.004 1298.24 196.59 1298.73 196.23C1299.22 195.858 1299.94 195.672 1300.87 195.672C1301.51 195.672 1302.09 195.804 1302.62 196.068C1303.15 196.332 1303.57 196.734 1303.88 197.274C1304.2 197.802 1304.36 198.468 1304.36 199.272V204.6H1303.28V199.344C1303.28 198.384 1303.04 197.694 1302.56 197.274C1302.08 196.854 1301.44 196.644 1300.64 196.644C1299.74 196.644 1298.99 196.944 1298.39 197.544C1297.79 198.132 1297.49 199.026 1297.49 200.226V204.6H1296.41Z" fill="black" fill-opacity="0.87"/>
<path d="M1177.05 258.6V253.704H1181.19V250.212H1177.05V234.48H1172.55L1157.79 251.004V253.704H1173.2V258.6H1177.05ZM1163.15 250.212V249.924L1172.91 239.016H1173.2V250.212H1163.15Z" fill="black" fill-opacity="0.87"/>
<path d="M1194.6 258.96C1201.87 258.96 1206.19 254.208 1206.19 246.54C1206.19 238.908 1201.87 234.12 1194.6 234.12C1187.32 234.12 1183 238.908 1183 246.54C1183 254.208 1187.32 258.96 1194.6 258.96ZM1194.6 255.216C1189.45 255.216 1187.11 252.552 1187.11 246.54C1187.11 240.528 1189.45 237.864 1194.6 237.864C1199.74 237.864 1202.05 240.528 1202.05 246.54C1202.05 252.552 1199.74 255.216 1194.6 255.216Z" fill="black" fill-opacity="0.87"/>
<path d="M1156.21 280.6V270.8H1157.96L1160.93 280.068H1161.09L1164.06 270.8H1165.81V280.6H1164.94V271.332H1164.78L1161.81 280.6H1160.21L1157.24 271.332H1157.08V280.6H1156.21Z" fill="black" fill-opacity="0.87"/>
<path d="M1168.25 280.6V273.796H1169.09V280.6H1168.25ZM1168.67 272.62C1168.47 272.62 1168.3 272.55 1168.16 272.41C1168.02 272.27 1167.95 272.097 1167.95 271.892C1167.95 271.677 1168.02 271.505 1168.16 271.374C1168.3 271.234 1168.47 271.164 1168.67 271.164C1168.89 271.164 1169.06 271.234 1169.19 271.374C1169.33 271.505 1169.4 271.677 1169.4 271.892C1169.4 272.097 1169.33 272.27 1169.19 272.41C1169.06 272.55 1168.89 272.62 1168.67 272.62Z" fill="black" fill-opacity="0.87"/>
<path d="M1171.56 280.6V273.796H1172.37V275.056H1172.54C1172.71 274.692 1172.99 274.37 1173.37 274.09C1173.75 273.801 1174.31 273.656 1175.03 273.656C1175.53 273.656 1175.98 273.759 1176.39 273.964C1176.8 274.169 1177.13 274.482 1177.37 274.902C1177.62 275.313 1177.75 275.831 1177.75 276.456V280.6H1176.91V276.512C1176.91 275.765 1176.72 275.229 1176.35 274.902C1175.98 274.575 1175.48 274.412 1174.85 274.412C1174.15 274.412 1173.57 274.645 1173.1 275.112C1172.64 275.569 1172.4 276.265 1172.4 277.198V280.6H1171.56Z" fill="black" fill-opacity="0.87"/>
<path d="M1182.64 280.74C1182.16 280.74 1181.71 280.637 1181.29 280.432C1180.88 280.227 1180.54 279.919 1180.29 279.508C1180.05 279.088 1179.93 278.565 1179.93 277.94V273.796H1180.77V277.884C1180.77 278.621 1180.95 279.158 1181.33 279.494C1181.7 279.821 1182.2 279.984 1182.83 279.984C1183.53 279.984 1184.11 279.755 1184.58 279.298C1185.04 278.831 1185.28 278.131 1185.28 277.198V273.796H1186.12V280.6H1185.3V279.34H1185.14C1184.97 279.704 1184.69 280.031 1184.31 280.32C1183.93 280.6 1183.37 280.74 1182.64 280.74Z" fill="black" fill-opacity="0.87"/>
<path d="M1191.05 280.6C1190.68 280.6 1190.41 280.507 1190.22 280.32C1190.05 280.133 1189.96 279.872 1189.96 279.536V274.552H1187.77V273.796H1189.96V271.248H1190.8V273.796H1193.18V274.552H1190.8V279.424C1190.8 279.704 1190.94 279.844 1191.22 279.844H1192.81V280.6H1191.05Z" fill="black" fill-opacity="0.87"/>
<path d="M1197.94 280.796C1197.24 280.796 1196.63 280.651 1196.11 280.362C1195.59 280.063 1195.19 279.648 1194.9 279.116C1194.61 278.584 1194.47 277.973 1194.47 277.282V277.114C1194.47 276.414 1194.61 275.803 1194.9 275.28C1195.19 274.748 1195.59 274.337 1196.09 274.048C1196.61 273.749 1197.19 273.6 1197.84 273.6C1198.48 273.6 1199.04 273.735 1199.52 274.006C1200.02 274.267 1200.41 274.65 1200.69 275.154C1200.97 275.649 1201.11 276.241 1201.11 276.932V277.38H1195.31C1195.34 278.229 1195.59 278.887 1196.08 279.354C1196.57 279.811 1197.19 280.04 1197.94 280.04C1198.58 280.04 1199.07 279.895 1199.41 279.606C1199.77 279.317 1200.04 278.962 1200.22 278.542L1200.98 278.878C1200.84 279.186 1200.64 279.489 1200.39 279.788C1200.15 280.077 1199.83 280.32 1199.44 280.516C1199.05 280.703 1198.55 280.796 1197.94 280.796ZM1195.32 276.652H1200.25C1200.21 275.915 1199.98 275.35 1199.54 274.958C1199.1 274.557 1198.53 274.356 1197.84 274.356C1197.16 274.356 1196.6 274.557 1196.15 274.958C1195.7 275.35 1195.43 275.915 1195.32 276.652Z" fill="black" fill-opacity="0.87"/>
<path d="M1205.87 280.796C1205.05 280.796 1204.35 280.6 1203.76 280.208C1203.18 279.816 1202.83 279.167 1202.7 278.262L1203.52 278.108C1203.6 278.603 1203.75 278.995 1203.97 279.284C1204.2 279.564 1204.48 279.765 1204.81 279.886C1205.15 280.007 1205.5 280.068 1205.87 280.068C1206.43 280.068 1206.88 279.956 1207.22 279.732C1207.56 279.499 1207.74 279.181 1207.74 278.78C1207.74 278.369 1207.57 278.085 1207.25 277.926C1206.93 277.767 1206.5 277.641 1205.97 277.548L1205.33 277.436C1204.9 277.361 1204.51 277.249 1204.17 277.1C1203.82 276.941 1203.55 276.731 1203.34 276.47C1203.14 276.209 1203.05 275.882 1203.05 275.49C1203.05 274.902 1203.28 274.44 1203.73 274.104C1204.2 273.768 1204.82 273.6 1205.58 273.6C1206.36 273.6 1206.98 273.777 1207.44 274.132C1207.92 274.477 1208.22 274.981 1208.34 275.644L1207.55 275.812C1207.46 275.271 1207.24 274.888 1206.88 274.664C1206.54 274.44 1206.1 274.328 1205.58 274.328C1205.07 274.328 1204.66 274.426 1204.35 274.622C1204.04 274.818 1203.89 275.107 1203.89 275.49C1203.89 275.863 1204.03 276.139 1204.31 276.316C1204.59 276.484 1204.97 276.61 1205.45 276.694L1206.1 276.806C1206.57 276.881 1206.99 276.993 1207.36 277.142C1207.73 277.282 1208.03 277.483 1208.24 277.744C1208.46 278.005 1208.58 278.351 1208.58 278.78C1208.58 279.424 1208.33 279.923 1207.85 280.278C1207.36 280.623 1206.71 280.796 1205.87 280.796Z" fill="black" fill-opacity="0.87"/>
<path d="M1263.03 258.96C1269.62 258.96 1273.62 256.44 1273.62 251.868C1273.62 248.52 1271.53 246.576 1268.04 245.964V245.676C1271.13 245.172 1272.75 243.228 1272.75 240.492C1272.75 236.388 1269.26 234.12 1263.1 234.12C1255.62 234.12 1252.16 237.648 1252.16 242.364V242.688H1256.26V242.436C1256.26 239.268 1257.85 237.792 1262.78 237.792C1267.46 237.792 1268.9 238.908 1268.9 241.248C1268.9 243.408 1267.39 244.488 1264.47 244.488H1258.28V247.728H1265.01C1268.04 247.728 1269.69 248.844 1269.69 251.292C1269.69 254.136 1267.89 255.288 1262.89 255.288C1257.56 255.288 1256.26 253.812 1256.26 250.644V250.14H1252.16V250.716C1252.16 255.612 1255.47 258.96 1263.03 258.96Z" fill="black" fill-opacity="0.87"/>
<path d="M1286.41 258.96C1293.14 258.96 1297.46 256.692 1297.46 252.012C1297.46 248.7 1295.3 246.72 1291.56 245.964V245.676C1294.94 245.172 1296.78 243.192 1296.78 240.42C1296.78 236.64 1293.25 234.12 1286.41 234.12C1279.57 234.12 1276.04 236.64 1276.04 240.42C1276.04 243.192 1277.91 245.172 1281.23 245.676V245.964C1277.66 246.72 1275.36 248.7 1275.36 252.012C1275.36 256.692 1279.61 258.96 1286.41 258.96ZM1286.41 244.74C1281.77 244.74 1279.93 243.624 1279.93 241.284C1279.93 239.052 1281.41 237.792 1286.41 237.792C1291.45 237.792 1292.93 239.052 1292.93 241.284C1292.93 243.624 1291.09 244.74 1286.41 244.74ZM1286.41 255.288C1281.15 255.288 1279.28 254.1 1279.28 251.292C1279.28 248.664 1281.19 247.404 1286.41 247.404C1291.63 247.404 1293.54 248.664 1293.54 251.292C1293.54 254.1 1291.63 255.288 1286.41 255.288Z" fill="black" fill-opacity="0.87"/>
<path d="M1249.52 280.796C1248.82 280.796 1248.19 280.675 1247.64 280.432C1247.09 280.18 1246.65 279.802 1246.34 279.298C1246.02 278.785 1245.86 278.136 1245.86 277.352V277.086H1246.76V277.352C1246.76 278.257 1247.01 278.929 1247.53 279.368C1248.05 279.797 1248.71 280.012 1249.52 280.012C1250.33 280.012 1250.95 279.825 1251.39 279.452C1251.83 279.069 1252.05 278.584 1252.05 277.996C1252.05 277.604 1251.95 277.291 1251.76 277.058C1251.57 276.815 1251.3 276.624 1250.96 276.484C1250.62 276.335 1250.23 276.204 1249.78 276.092L1248.89 275.868C1248.35 275.728 1247.88 275.555 1247.46 275.35C1247.04 275.135 1246.71 274.86 1246.46 274.524C1246.22 274.179 1246.1 273.74 1246.1 273.208C1246.1 272.676 1246.23 272.214 1246.51 271.822C1246.79 271.43 1247.17 271.131 1247.65 270.926C1248.14 270.711 1248.7 270.604 1249.35 270.604C1249.99 270.604 1250.57 270.716 1251.08 270.94C1251.61 271.164 1252.02 271.495 1252.32 271.934C1252.62 272.363 1252.78 272.905 1252.78 273.558V274.216H1251.88V273.558C1251.88 273.045 1251.77 272.629 1251.55 272.312C1251.32 271.995 1251.02 271.761 1250.64 271.612C1250.25 271.463 1249.82 271.388 1249.35 271.388C1248.67 271.388 1248.1 271.547 1247.65 271.864C1247.21 272.172 1247 272.62 1247 273.208C1247 273.6 1247.08 273.913 1247.26 274.146C1247.45 274.379 1247.7 274.566 1248.03 274.706C1248.37 274.846 1248.76 274.972 1249.21 275.084L1250.1 275.308C1250.62 275.429 1251.09 275.593 1251.52 275.798C1251.95 275.994 1252.29 276.269 1252.55 276.624C1252.81 276.969 1252.95 277.427 1252.95 277.996C1252.95 278.565 1252.8 279.06 1252.51 279.48C1252.23 279.9 1251.83 280.227 1251.32 280.46C1250.81 280.684 1250.21 280.796 1249.52 280.796Z" fill="black" fill-opacity="0.87"/>
<path d="M1258.1 280.796C1257.4 280.796 1256.79 280.651 1256.27 280.362C1255.75 280.063 1255.35 279.648 1255.06 279.116C1254.77 278.584 1254.63 277.973 1254.63 277.282V277.114C1254.63 276.414 1254.77 275.803 1255.06 275.28C1255.35 274.748 1255.75 274.337 1256.25 274.048C1256.77 273.749 1257.35 273.6 1258 273.6C1258.64 273.6 1259.2 273.735 1259.68 274.006C1260.18 274.267 1260.56 274.65 1260.84 275.154C1261.12 275.649 1261.26 276.241 1261.26 276.932V277.38H1255.47C1255.5 278.229 1255.75 278.887 1256.24 279.354C1256.73 279.811 1257.35 280.04 1258.1 280.04C1258.73 280.04 1259.22 279.895 1259.57 279.606C1259.92 279.317 1260.2 278.962 1260.38 278.542L1261.14 278.878C1261 279.186 1260.8 279.489 1260.55 279.788C1260.31 280.077 1259.99 280.32 1259.6 280.516C1259.21 280.703 1258.71 280.796 1258.1 280.796ZM1255.48 276.652H1260.41C1260.37 275.915 1260.13 275.35 1259.7 274.958C1259.26 274.557 1258.69 274.356 1258 274.356C1257.32 274.356 1256.76 274.557 1256.31 274.958C1255.86 275.35 1255.58 275.915 1255.48 276.652Z" fill="black" fill-opacity="0.87"/>
<path d="M1266.44 280.796C1265.78 280.796 1265.18 280.656 1264.66 280.376C1264.15 280.087 1263.74 279.676 1263.44 279.144C1263.14 278.612 1263 277.987 1263 277.268V277.128C1263 276.4 1263.14 275.775 1263.44 275.252C1263.74 274.72 1264.15 274.314 1264.66 274.034C1265.18 273.745 1265.78 273.6 1266.44 273.6C1267.09 273.6 1267.64 273.726 1268.09 273.978C1268.55 274.221 1268.9 274.543 1269.16 274.944C1269.42 275.336 1269.58 275.751 1269.65 276.19L1268.82 276.358C1268.77 275.994 1268.66 275.663 1268.47 275.364C1268.28 275.056 1268.02 274.813 1267.69 274.636C1267.35 274.449 1266.93 274.356 1266.44 274.356C1265.94 274.356 1265.5 274.473 1265.11 274.706C1264.72 274.93 1264.4 275.252 1264.17 275.672C1263.95 276.083 1263.84 276.573 1263.84 277.142V277.254C1263.84 277.823 1263.95 278.318 1264.17 278.738C1264.4 279.149 1264.72 279.471 1265.11 279.704C1265.5 279.928 1265.94 280.04 1266.44 280.04C1267.19 280.04 1267.76 279.849 1268.15 279.466C1268.54 279.074 1268.78 278.598 1268.88 278.038L1269.7 278.206C1269.62 278.645 1269.44 279.065 1269.17 279.466C1268.91 279.858 1268.55 280.18 1268.09 280.432C1267.64 280.675 1267.09 280.796 1266.44 280.796Z" fill="black" fill-opacity="0.87"/>
<path d="M1274.88 280.796C1274.18 280.796 1273.58 280.651 1273.06 280.362C1272.54 280.063 1272.14 279.653 1271.85 279.13C1271.57 278.598 1271.43 277.982 1271.43 277.282V277.114C1271.43 276.414 1271.57 275.803 1271.85 275.28C1272.14 274.748 1272.54 274.337 1273.06 274.048C1273.58 273.749 1274.18 273.6 1274.88 273.6C1275.57 273.6 1276.17 273.749 1276.68 274.048C1277.2 274.337 1277.61 274.748 1277.89 275.28C1278.17 275.803 1278.32 276.414 1278.32 277.114V277.282C1278.32 277.982 1278.17 278.598 1277.89 279.13C1277.61 279.653 1277.2 280.063 1276.68 280.362C1276.17 280.651 1275.57 280.796 1274.88 280.796ZM1274.88 280.04C1275.68 280.04 1276.31 279.788 1276.78 279.284C1277.25 278.771 1277.48 278.094 1277.48 277.254V277.142C1277.48 276.302 1277.25 275.63 1276.78 275.126C1276.31 274.613 1275.68 274.356 1274.88 274.356C1274.08 274.356 1273.45 274.613 1272.97 275.126C1272.5 275.63 1272.27 276.302 1272.27 277.142V277.254C1272.27 278.094 1272.5 278.771 1272.97 279.284C1273.45 279.788 1274.08 280.04 1274.88 280.04Z" fill="black" fill-opacity="0.87"/>
<path d="M1280.45 280.6V273.796H1281.26V275.056H1281.43C1281.6 274.692 1281.87 274.37 1282.25 274.09C1282.64 273.801 1283.19 273.656 1283.92 273.656C1284.42 273.656 1284.87 273.759 1285.28 273.964C1285.69 274.169 1286.02 274.482 1286.26 274.902C1286.51 275.313 1286.64 275.831 1286.64 276.456V280.6H1285.8V276.512C1285.8 275.765 1285.61 275.229 1285.24 274.902C1284.86 274.575 1284.36 274.412 1283.74 274.412C1283.04 274.412 1282.46 274.645 1281.99 275.112C1281.52 275.569 1281.29 276.265 1281.29 277.198V280.6H1280.45Z" fill="black" fill-opacity="0.87"/>
<path d="M1291.96 280.796C1291.35 280.796 1290.8 280.656 1290.31 280.376C1289.81 280.087 1289.42 279.681 1289.12 279.158C1288.83 278.626 1288.68 278.001 1288.68 277.282V277.114C1288.68 276.395 1288.83 275.775 1289.12 275.252C1289.41 274.72 1289.8 274.314 1290.29 274.034C1290.8 273.745 1291.35 273.6 1291.96 273.6C1292.46 273.6 1292.89 273.67 1293.23 273.81C1293.58 273.941 1293.86 274.113 1294.07 274.328C1294.3 274.533 1294.47 274.753 1294.59 274.986H1294.76V270.8H1295.6V280.6H1294.79V279.354H1294.62C1294.42 279.727 1294.12 280.063 1293.7 280.362C1293.29 280.651 1292.71 280.796 1291.96 280.796ZM1292.16 280.04C1292.93 280.04 1293.56 279.793 1294.03 279.298C1294.52 278.803 1294.76 278.122 1294.76 277.254V277.142C1294.76 276.274 1294.52 275.593 1294.03 275.098C1293.56 274.603 1292.93 274.356 1292.16 274.356C1291.39 274.356 1290.77 274.603 1290.28 275.098C1289.8 275.593 1289.55 276.274 1289.55 277.142V277.254C1289.55 278.122 1289.8 278.803 1290.28 279.298C1290.77 279.793 1291.39 280.04 1292.16 280.04Z" fill="black" fill-opacity="0.87"/>
<path d="M1300.77 280.796C1299.95 280.796 1299.25 280.6 1298.66 280.208C1298.08 279.816 1297.73 279.167 1297.6 278.262L1298.42 278.108C1298.5 278.603 1298.65 278.995 1298.87 279.284C1299.1 279.564 1299.38 279.765 1299.71 279.886C1300.05 280.007 1300.4 280.068 1300.77 280.068C1301.33 280.068 1301.78 279.956 1302.12 279.732C1302.46 279.499 1302.64 279.181 1302.64 278.78C1302.64 278.369 1302.47 278.085 1302.15 277.926C1301.83 277.767 1301.4 277.641 1300.87 277.548L1300.23 277.436C1299.8 277.361 1299.41 277.249 1299.07 277.1C1298.72 276.941 1298.45 276.731 1298.24 276.47C1298.04 276.209 1297.95 275.882 1297.95 275.49C1297.95 274.902 1298.17 274.44 1298.63 274.104C1299.1 273.768 1299.71 273.6 1300.48 273.6C1301.25 273.6 1301.88 273.777 1302.34 274.132C1302.82 274.477 1303.12 274.981 1303.24 275.644L1302.45 275.812C1302.36 275.271 1302.14 274.888 1301.78 274.664C1301.44 274.44 1301 274.328 1300.48 274.328C1299.97 274.328 1299.56 274.426 1299.25 274.622C1298.94 274.818 1298.79 275.107 1298.79 275.49C1298.79 275.863 1298.93 276.139 1299.21 276.316C1299.49 276.484 1299.87 276.61 1300.35 276.694L1301 276.806C1301.46 276.881 1301.88 276.993 1302.26 277.142C1302.63 277.282 1302.93 277.483 1303.14 277.744C1303.36 278.005 1303.48 278.351 1303.48 278.78C1303.48 279.424 1303.23 279.923 1302.75 280.278C1302.26 280.623 1301.6 280.796 1300.77 280.796Z" fill="black" fill-opacity="0.87"/>
</g>
<defs>
<filter id="filter0_d" x="117" y="0" width="1170" height="674" filterUnits="userSpaceOnUse" color-interpolation-filters="sRGB">
<feFlood flood-opacity="0" result="BackgroundImageFix"/>
<feColorMatrix in="SourceAlpha" type="matrix" values="0 0 0 0 0 0 0 0 0 0 0 0 0 0 0 0 0 0 127 0"/>
<feOffset dy="4"/>
<feGaussianBlur stdDeviation="15"/>
<feColorMatrix type="matrix" values="0 0 0 0 0 0 0 0 0 0 0 0 0 0 0 0 0 0 0.1 0"/>
<feBlend mode="normal" in2="BackgroundImageFix" result="effect1_dropShadow"/>
<feBlend mode="normal" in="SourceGraphic" in2="effect1_dropShadow" result="shape"/>
</filter>
<filter id="filter1_d" x="0" y="385" width="600" height="227" filterUnits="userSpaceOnUse" color-interpolation-filters="sRGB">
<feFlood flood-opacity="0" result="BackgroundImageFix"/>
<feColorMatrix in="SourceAlpha" type="matrix" values="0 0 0 0 0 0 0 0 0 0 0 0 0 0 0 0 0 0 127 0"/>
<feOffset dy="4"/>
<feGaussianBlur stdDeviation="15"/>
<feColorMatrix type="matrix" values="0 0 0 0 0 0 0 0 0 0 0 0 0 0 0 0 0 0 0.1 0"/>
<feBlend mode="normal" in2="BackgroundImageFix" result="effect1_dropShadow"/>
<feBlend mode="normal" in="SourceGraphic" in2="effect1_dropShadow" result="shape"/>
</filter>
<filter id="filter2_d" x="1084" y="139" width="290" height="201" filterUnits="userSpaceOnUse" color-interpolation-filters="sRGB">
<feFlood flood-opacity="0" result="BackgroundImageFix"/>
<feColorMatrix in="SourceAlpha" type="matrix" values="0 0 0 0 0 0 0 0 0 0 0 0 0 0 0 0 0 0 127 0"/>
<feOffset dy="4"/>
<feGaussianBlur stdDeviation="15"/>
<feColorMatrix type="matrix" values="0 0 0 0 0 0 0 0 0 0 0 0 0 0 0 0 0 0 0.1 0"/>
<feBlend mode="normal" in2="BackgroundImageFix" result="effect1_dropShadow"/>
<feBlend mode="normal" in="SourceGraphic" in2="effect1_dropShadow" result="shape"/>
</filter>
</defs>
</svg>
