<svg width="195" height="59" viewBox="0 0 195 59" fill="none" xmlns="http://www.w3.org/2000/svg">
<path d="M76.0595 43C82.9395 43 87.2915 39 87.2915 32.28C87.2915 25.56 82.9395 21.56 76.0595 21.56H65.7235V43H76.0595ZM76.0595 25.88C80.4115 25.88 82.1715 27.128 82.1715 32.28C82.1715 37.432 80.4115 38.68 76.0595 38.68H70.5235V25.88H76.0595ZM97.8858 43.32C102.974 43.32 106.366 40.888 106.366 37.4V37.048H101.566V37.368C101.566 38.744 100.574 39.48 97.7258 39.48C94.6218 39.48 93.4698 38.424 93.3418 35.96H106.398C106.462 35.416 106.526 35 106.526 34.424C106.526 29.4 103.038 26.648 97.7898 26.648C92.5098 26.648 88.8938 29.88 88.8938 35C88.8938 40.696 92.5418 43.32 97.8858 43.32ZM97.6938 30.392C100.51 30.392 101.79 31.32 101.918 33.432H93.4058C93.6298 31.352 94.8458 30.392 97.6938 30.392ZM113.361 43V32.12L113.169 28.76H113.521L114.769 32.12L119.249 41.72H125.073L129.553 32.12L130.801 28.76H131.153L130.993 32.12V43H135.793V21.56H129.265L124.401 32.12L122.449 37.144H122.097L120.081 32.12L115.057 21.56H108.561V43H113.361ZM146.855 43.32C152.327 43.32 156.007 40.056 156.007 35C156.007 29.88 152.327 26.648 146.855 26.648C141.383 26.648 137.703 29.88 137.703 35C137.703 40.056 141.383 43.32 146.855 43.32ZM146.855 39.064C143.591 39.064 142.471 37.816 142.471 35C142.471 32.184 143.591 30.872 146.855 30.872C150.087 30.872 151.239 32.184 151.239 35C151.239 37.816 150.087 39.064 146.855 39.064ZM162.768 43V34.904C162.768 32.184 163.856 30.968 166.896 30.968C169.84 30.968 170.896 32.056 170.896 34.616V43H175.696V33.016C175.696 29.464 173.616 26.648 169.232 26.648C165.04 26.648 163.12 29.208 162.704 31.896H162.416V26.968H157.968V43H162.768ZM186.22 43.32C191.18 43.32 194.156 41.336 194.156 38.328C194.156 35.672 192.556 34.232 188.268 33.752L184.844 33.336C182.732 33.08 182.284 32.728 182.284 31.896C182.284 30.872 182.892 30.456 185.292 30.456C188.236 30.456 188.876 31.128 188.876 32.44V32.632H193.676V32.536C193.676 28.632 190.7 26.648 185.452 26.648C179.948 26.648 177.548 28.888 177.548 31.704C177.548 34.392 179.34 35.832 182.54 36.184L187.052 36.728C188.94 36.984 189.42 37.24 189.42 38.136C189.42 39.096 188.812 39.512 186.252 39.512C183.532 39.512 182.636 39.128 182.636 37.688V37.4H177.836V37.496C177.836 41.208 180.812 43.32 186.22 43.32Z" fill="black"/>
<path d="M28.8642 13.1787L25.1536 0.629318C24.9067 -0.20578 23.7258 -0.211177 23.4713 0.62163L19.6314 13.1845C19.456 13.7585 18.7693 13.9914 18.2809 13.6425L10.2974 7.9407C9.62565 7.46092 8.72303 8.08878 8.93918 8.88549L11.9301 19.9096C12.0797 20.461 12.7091 20.7237 13.2128 20.4542C21.7383 15.8916 26.9257 15.9001 35.4377 20.4544C35.9414 20.7239 36.5706 20.4611 36.7202 19.9098L39.7183 8.8594C39.9337 8.06566 39.0377 7.43776 38.3651 7.91104L30.212 13.648C29.7205 13.9938 29.0346 13.755 28.8642 13.1787Z" fill="black"/>
<path fill-rule="evenodd" clip-rule="evenodd" d="M1.17315 31.0452C2.2017 30.5567 3.79104 29.7358 5.84599 28.4735C6.62633 27.9941 7.51862 27.3547 8.51475 26.6409C12.3846 23.8679 17.8219 19.9716 24.353 19.9716C30.884 19.9716 36.3213 23.8679 40.1912 26.6409L40.1914 26.641C41.1874 27.3548 42.0797 27.9941 42.8599 28.4735C44.9149 29.7358 46.5042 30.5567 47.5328 31.0452C47.9922 31.2634 47.9922 32.0119 47.5328 32.2301C46.5042 32.7187 44.9149 33.5395 42.8599 34.8019C42.0796 35.2812 41.1874 35.9206 40.1913 36.6344C36.3214 39.4074 30.884 43.3037 24.353 43.3037C17.822 43.3037 12.3847 39.4075 8.51478 36.6345C7.51865 35.9206 6.62633 35.2812 5.84599 34.8019C3.79104 33.5395 2.2017 32.7187 1.17315 32.2301C0.713767 32.0119 0.713768 31.2634 1.17315 31.0452ZM24.3303 39.4409C28.6963 39.4409 32.2357 35.9015 32.2357 31.5355C32.2357 27.1695 28.6963 23.6301 24.3303 23.6301C19.9642 23.6301 16.4249 27.1695 16.4249 31.5355C16.4249 35.9015 19.9642 39.4409 24.3303 39.4409Z" fill="black"/>
</svg>
