<svg width="33" height="34" viewBox="0 0 33 34" fill="none" xmlns="http://www.w3.org/2000/svg">
<path d="M16.4688 0.892334C7.37109 0.892334 0 8.26343 0 17.3611C0 26.4587 7.37109 33.8298 16.4688 33.8298C25.5664 33.8298 32.9375 26.4587 32.9375 17.3611C32.9375 8.26343 25.5664 0.892334 16.4688 0.892334ZM30.8125 17.3611C30.8125 25.2634 24.3711 31.7048 16.4688 31.7048C8.56641 31.7048 2.125 25.3298 2.125 17.3611C2.125 9.52515 8.5 3.01733 16.4688 3.01733C24.3047 3.01733 30.8125 9.45874 30.8125 17.3611ZM24.6367 17.0955L24.1719 16.6306C23.8398 16.2986 23.375 16.2986 23.043 16.6306L17.5977 22.3416V9.65796C17.5977 9.25952 17.1992 8.86108 16.8008 8.86108H16.1367C15.6719 8.86108 15.3398 9.25952 15.3398 9.65796V22.3416L9.82813 16.6306C9.49609 16.2986 9.03125 16.2986 8.69922 16.6306L8.23438 17.0955C7.90234 17.4275 7.90234 17.8923 8.23438 18.2244L15.8711 25.8611C16.2031 26.1931 16.668 26.1931 17 25.8611L24.6367 18.2244C24.9688 17.8923 24.9688 17.4275 24.6367 17.0955Z" fill="white" fill-opacity="0.37"/>
</svg>
