<svg width="17" height="17" viewBox="0 0 17 17" fill="none" xmlns="http://www.w3.org/2000/svg">
<path d="M8.78125 16.4492L9.02734 16.2031C9.20312 16.0273 9.20312 15.7813 9.02734 15.6055L2.76953 9.34766L15.9531 9.34766C16.1992 9.34766 16.375 9.13672 16.375 8.92578L16.375 8.57422C16.375 8.32813 16.1992 8.15234 15.9531 8.15234L2.76953 8.15234L9.02734 1.85938C9.20312 1.68359 9.20312 1.4375 9.02734 1.26172L8.78125 1.01563C8.60547 0.839844 8.35937 0.839844 8.18359 1.01563L0.765624 8.4336C0.589842 8.60938 0.589843 8.85547 0.765624 9.03125L8.18359 16.4492C8.35937 16.625 8.60547 16.625 8.78125 16.4492Z" fill="black" fill-opacity="0.87"/>
</svg>
