<svg width="15" height="17" viewBox="0 0 15 17" fill="none" xmlns="http://www.w3.org/2000/svg">
<path d="M12.9844 8.53125C13.1602 8.39063 13.1602 8.10938 12.9844 7.96875L12.7383 7.6875C12.5625 7.54688 12.3164 7.54688 12.1406 7.6875L8.09765 11.7656L8.09766 0.796876C8.09766 0.585939 7.88672 0.375001 7.67578 0.375001L7.32422 0.375001C7.07812 0.375001 6.90234 0.585939 6.90234 0.796876L6.90234 11.7656L2.82422 7.6875C2.64844 7.54688 2.40234 7.54688 2.22656 7.6875L1.98047 7.93359C1.80469 8.10938 1.80468 8.39063 1.98047 8.53125L7.18359 13.7695C7.35937 13.9453 7.60547 13.9453 7.78125 13.7695L12.9844 8.53125ZM14.25 15.7031L14.25 15.4219C14.25 15.2109 14.0391 15 13.8281 15L1.17187 15C0.925778 15 0.749996 15.2109 0.749996 15.4219L0.749996 15.7031C0.749996 15.9492 0.925777 16.125 1.17187 16.125L13.8281 16.125C14.0391 16.125 14.25 15.9492 14.25 15.7031Z" fill="black" fill-opacity="0.87"/>
</svg>
