<svg width="17" height="17" viewBox="0 0 17 17" fill="none" xmlns="http://www.w3.org/2000/svg">
<path d="M0.624998 5.57813C0.624998 5.82422 0.800779 6 1.04687 6L1.32812 6C1.53906 6 1.75 5.82422 1.75 5.57813L1.75 1.5L5.82812 1.5C6.03906 1.5 6.25 1.32422 6.25 1.07813L6.25 0.796876C6.25 0.585939 6.03906 0.375001 5.82812 0.375001L1.46875 0.375C0.976561 0.375 0.624999 0.761719 0.624999 1.21875L0.624998 5.57813ZM11.1719 0.375002C10.9258 0.375002 10.75 0.585939 10.75 0.796877L10.75 1.07813C10.75 1.32422 10.9258 1.5 11.1719 1.5L15.25 1.5L15.25 5.57813C15.25 5.82422 15.4258 6 15.6719 6L15.9531 6C16.1641 6 16.375 5.82422 16.375 5.57813L16.375 1.21875C16.375 0.761722 15.9883 0.375003 15.5312 0.375003L11.1719 0.375002ZM16.375 10.9219C16.375 10.7109 16.1641 10.5 15.9531 10.5L15.6719 10.5C15.4258 10.5 15.25 10.7109 15.25 10.9219L15.25 15L11.1719 15C10.9258 15 10.75 15.2109 10.75 15.4219L10.75 15.7031C10.75 15.9492 10.9258 16.125 11.1719 16.125L15.5312 16.125C15.9883 16.125 16.375 15.7734 16.375 15.2813L16.375 10.9219ZM5.82812 16.125C6.03906 16.125 6.25 15.9492 6.25 15.7031L6.25 15.4219C6.25 15.2109 6.03906 15 5.82812 15L1.75 15L1.75 10.9219C1.75 10.7109 1.53906 10.5 1.32812 10.5L1.04687 10.5C0.800778 10.5 0.624997 10.7109 0.624997 10.9219L0.624996 15.2813C0.624996 15.7734 0.976559 16.125 1.46875 16.125L5.82812 16.125Z" fill="black" fill-opacity="0.87"/>
</svg>
