<svg width="19" height="17" viewBox="0 0 19 17" fill="none" xmlns="http://www.w3.org/2000/svg">
<path d="M16.7422 1.46485C14.8086 -0.152341 11.9609 0.093752 10.168 1.95703L9.5 2.66016L8.79687 1.95703C7.35547 0.48047 4.47266 -0.433593 2.22265 1.46484C0.00781086 3.36328 -0.0976585 6.73828 1.87109 8.77734L8.6914 15.8086C8.90234 16.0195 9.18359 16.125 9.46484 16.125C9.78125 16.125 10.0625 16.0195 10.2734 15.8086L17.0937 8.77735C19.0625 6.73828 18.957 3.36328 16.7422 1.46485ZM16.2852 8.00391L9.5 15.0352L2.67969 8.00391C1.34375 6.59766 1.0625 3.96094 2.96094 2.34375C4.89453 0.691407 7.14453 1.88672 7.98828 2.73047L9.5 4.27735L10.9766 2.73047C11.7852 1.88672 14.0703 0.691409 16.0039 2.34375C17.9023 3.96094 17.6211 6.59766 16.2852 8.00391Z" fill="black" fill-opacity="0.87"/>
</svg>
