<svg width="17" height="19" viewBox="0 0 17 19" fill="none" xmlns="http://www.w3.org/2000/svg">
<path d="M13 11.5C11.9805 11.5 11.0664 11.957 10.4687 12.6602L7.09375 10.5508C7.44531 9.74219 7.44531 8.79297 7.09375 7.98438L10.4687 5.875C11.0664 6.57813 11.9805 7 13 7C14.8633 7 16.375 5.48828 16.375 3.625C16.375 1.76172 14.8633 0.250003 13 0.250002C11.1367 0.250002 9.625 1.76172 9.625 3.625C9.625 4.08203 9.69531 4.53906 9.87109 4.92578L6.49609 7.03516C5.89844 6.33203 4.98437 5.875 4 5.875C2.13672 5.875 0.624998 7.38672 0.624998 9.25C0.624997 11.1133 2.13672 12.625 4 12.625C4.98437 12.625 5.89843 12.2031 6.49609 11.5L9.87109 13.6094C9.69531 13.9961 9.625 14.418 9.625 14.875C9.625 16.7383 11.1367 18.25 13 18.25C14.8633 18.25 16.375 16.7383 16.375 14.875C16.375 13.0117 14.8633 11.5 13 11.5ZM13 1.375C14.2305 1.375 15.25 2.39453 15.25 3.625C15.25 4.89063 14.2305 5.875 13 5.875C11.7344 5.875 10.75 4.89063 10.75 3.625C10.75 2.39453 11.7344 1.375 13 1.375ZM4 11.5C2.73437 11.5 1.75 10.5156 1.75 9.25C1.75 8.01953 2.73437 7 4 7C5.23047 7 6.25 8.01953 6.25 9.25C6.25 10.5156 5.23047 11.5 4 11.5ZM13 17.125C11.7344 17.125 10.75 16.1406 10.75 14.875C10.75 13.6445 11.7344 12.625 13 12.625C14.2305 12.625 15.25 13.6445 15.25 14.875C15.25 16.1406 14.2305 17.125 13 17.125Z" fill="black" fill-opacity="0.87"/>
</svg>
