<svg width="32" height="37" viewBox="0 0 32 37" fill="none" xmlns="http://www.w3.org/2000/svg">
<path d="M27.8828 10.4844L29.0781 9.21875C29.4297 8.9375 29.4297 8.375 29.0781 8.02344L28.7266 7.67188C28.375 7.32031 27.8125 7.32031 27.5312 7.67188L26.2656 8.86719C23.7344 6.6875 20.5703 5.28125 16.9844 5.07031V2.75H18.7422C19.2344 2.75 19.5859 2.39844 19.5859 1.90625V1.34375C19.5859 0.921875 19.2344 0.5 18.7422 0.5H13.1172C12.6953 0.5 12.2734 0.921875 12.2734 1.34375V1.90625C12.2734 2.39844 12.6953 2.75 13.1172 2.75H14.7344V5.07031C6.64844 5.70312 0.25 12.4531 0.25 20.75C0.25 29.4688 7.28125 36.5 16 36.5C24.6484 36.5 31.75 29.4688 31.75 20.75C31.75 16.8125 30.2734 13.2266 27.8828 10.4844ZM16 34.25C8.47656 34.25 2.5 28.2734 2.5 20.75C2.5 13.2969 8.47656 7.25 16 7.25C23.4531 7.25 29.5 13.2969 29.5 20.75C29.5 28.2734 23.4531 34.25 16 34.25ZM16.2812 25.25C16.7031 25.25 17.125 24.8984 17.125 24.4062V12.5938C17.125 12.1719 16.7031 11.75 16.2812 11.75H15.7188C15.2266 11.75 14.875 12.1719 14.875 12.5938V24.4062C14.875 24.8984 15.2266 25.25 15.7188 25.25H16.2812Z" fill="black" fill-opacity="0.87"/>
</svg>
