<svg width="36" height="37" viewBox="0 0 36 37" fill="none" xmlns="http://www.w3.org/2000/svg">
<path d="M34.9453 16.3906L20.1094 1.55469C19.5469 0.992188 18.4922 0.5 17.7188 0.5H3.375C1.47656 0.5 0 2.04688 0 3.875V18.2891C0 19.0625 0.421875 20.1172 0.984375 20.6797L15.8203 35.5156C17.1562 36.8516 19.3359 36.8516 20.6016 35.5156L34.9453 21.1719C36.2812 19.9062 36.2812 17.7266 34.9453 16.3906ZM33.3984 19.625L19.0547 33.9688C18.5625 34.3906 17.8594 34.3906 17.4375 33.9688L2.53125 19.0625C2.39062 18.8516 2.25 18.5 2.25 18.2891V3.875C2.25 3.3125 2.74219 2.75 3.375 2.75H17.7188C18 2.75 18.2812 2.89062 18.4922 3.10156L33.3984 18.0078C33.8203 18.4297 33.8203 19.1328 33.3984 19.625ZM10.125 9.21875C10.8984 9.21875 11.5312 9.85156 11.5312 10.625C11.5312 11.4688 10.8984 12.0312 10.125 12.0312C9.28125 12.0312 8.71875 11.4688 8.71875 10.625C8.71875 9.85156 9.28125 9.21875 10.125 9.21875ZM10.125 7.25C8.22656 7.25 6.75 8.79688 6.75 10.625C6.75 12.5234 8.22656 14 10.125 14C11.9531 14 13.5 12.5234 13.5 10.625C13.5 8.79688 11.9531 7.25 10.125 7.25Z" fill="black" fill-opacity="0.87"/>
</svg>
