<svg width="81" height="72" viewBox="0 0 81 72" fill="none" xmlns="http://www.w3.org/2000/svg">
<path d="M79.8231 39.2394L72.7366 21.4537C72.0419 19.7863 70.3744 18.6747 68.5681 18.6747H62.7321V5.19643C62.7321 2.83427 60.6479 0.750004 58.2857 0.750004H22.7143C20.2132 0.750004 18.2679 2.83427 18.2679 5.19643V18.5357H12.4319C10.4866 18.5357 8.95815 19.7863 8.2634 21.4537L1.03795 39.2394C0.621098 40.2121 0.482147 41.4626 0.482147 42.5742V67.4464C0.482147 69.9475 2.42746 71.8929 4.92858 71.8929H76.0714C78.4336 71.8929 80.5179 69.9475 80.5179 67.4464V42.5742C80.5179 41.4626 80.24 40.351 79.8231 39.2394ZM22.7143 5.19643H58.2857V31.875H22.7143V5.19643ZM12.4319 22.9821H18.2679V31.875H14.933C14.2383 31.875 13.8214 32.4308 13.8214 32.9866V35.2098C13.8214 35.9046 14.2383 36.3214 14.933 36.3214H66.067C66.6228 36.3214 67.1786 35.9046 67.1786 35.2098V32.9866C67.1786 32.4308 66.6228 31.875 66.067 31.875H62.7321V22.9821H68.5681V23.1211L75.6546 40.7679H5.20648L12.4319 22.9821ZM76.0714 67.4464H4.92858V45.2143H76.0714V67.4464Z" fill="black" fill-opacity="0.38"/>
</svg>
