<svg width="73" height="54" viewBox="0 0 73 54" fill="none" xmlns="http://www.w3.org/2000/svg">
<path d="M70.9598 49.5536H5.375V1.75447C5.375 1.19866 4.8192 0.64286 4.26339 0.64286H2.04018C1.34543 0.64286 0.928574 1.19866 0.928574 1.75447V51.7768C0.928574 53.0273 1.90123 54 3.15179 54H70.9598C71.5156 54 72.0714 53.5831 72.0714 52.8884V50.6652C72.0714 50.1094 71.5156 49.5536 70.9598 49.5536ZM14.5458 28.433C14.1289 28.8499 14.1289 29.5446 14.5458 29.9615L16.0742 31.49C16.4911 31.9068 17.1858 31.9068 17.6027 31.49L27.7461 21.4855L39.5569 33.2963C40.3906 34.13 41.7801 34.13 42.6138 33.2963L55.6752 20.2349L61.7891 26.3488C62.4838 27.0435 63.3175 27.3214 64.1512 27.3214C65.9576 27.3214 67.625 26.0709 67.625 23.9866V7.45145C67.625 6.2009 66.5134 5.08929 65.2628 5.08929H48.7277C45.6708 5.08929 44.1423 8.84096 46.3655 10.9252L52.4794 17.178L41.0854 28.572L29.4135 16.7612C28.4408 15.9275 27.0513 15.9275 26.2176 16.7612L14.5458 28.433ZM51.2288 9.53572H63.1786V21.4855L51.2288 9.53572Z" fill="black" fill-opacity="0.38"/>
</svg>
