<svg width="73" height="72" viewBox="0 0 73 72" fill="none" xmlns="http://www.w3.org/2000/svg">
<path d="M63.1786 0.750004H9.82143C4.8192 0.750004 0.928574 4.77958 0.928574 9.64286V49.6607C0.928574 54.6629 4.8192 58.5536 9.82143 58.5536H23.1607V70.2254C23.1607 71.3371 23.8555 71.8929 24.8281 71.8929C25.106 71.8929 25.3839 71.8929 25.8008 71.615L43.1696 58.5536H63.1786C68.0419 58.5536 72.0714 54.6629 72.0714 49.6607V9.64286C72.0714 4.77958 68.0419 0.750004 63.1786 0.750004ZM67.625 49.6607C67.625 52.1618 65.5407 54.1071 63.1786 54.1071H41.6412L40.3906 55.0798L27.6071 64.6674V54.1071H9.82143C7.32031 54.1071 5.375 52.1618 5.375 49.6607V9.64286C5.375 7.2807 7.32031 5.19643 9.82143 5.19643H63.1786C65.5407 5.19643 67.625 7.2807 67.625 9.64286V49.6607ZM41.0854 28.8181L32.8873 26.4559C31.7757 26.0391 30.942 24.9275 30.942 23.6769C30.942 22.1484 32.1925 20.8979 33.721 20.8979H38.8622C39.9738 20.8979 41.0854 21.1758 42.058 21.8705C42.4749 22.1484 43.0307 22.0095 43.3086 21.7316L44.976 20.0642C45.3929 19.6473 45.3929 18.8136 44.8371 18.3968C43.1696 17.1462 41.0854 16.4515 38.8622 16.4515H38.7232V12.9777C38.7232 12.4219 38.1674 11.8661 37.6116 11.8661H35.3884C34.6936 11.8661 34.2768 12.4219 34.2768 12.9777V16.3125H33.721C29.4135 16.3125 26.0787 20.0642 26.4955 24.3717C26.7734 27.4286 29.1356 29.9297 32.0536 30.7634L39.9738 32.9866C41.0854 33.4035 42.058 34.5151 42.058 35.7656C42.058 37.2941 40.6685 38.5446 39.1401 38.5446H33.9989C32.8873 38.5446 31.7757 38.2667 30.803 37.572C30.5251 37.2941 29.8304 37.433 29.5525 37.7109L27.885 39.3783C27.4682 39.7952 27.4682 40.6289 28.024 41.0458C29.6914 42.2963 31.7757 42.9911 33.9989 42.9911H34.2768V46.3259C34.2768 47.0206 34.6936 47.4375 35.3884 47.4375H37.6116C38.1674 47.4375 38.7232 47.0206 38.7232 46.3259V42.9911H38.8622C42.058 42.9911 44.976 41.1847 46.0876 38.1278C47.4771 34.0982 44.976 29.9297 41.0854 28.8181Z" fill="black" fill-opacity="0.38"/>
</svg>
