<svg width="73" height="63" viewBox="0 0 73 63" fill="none" xmlns="http://www.w3.org/2000/svg">
<path d="M47.6161 0.196432C40.8075 0.196432 34.6936 1.44699 30.2472 3.53125C30.1083 3.53125 23.1607 6.44922 23.1607 11.3125V13.6747C11.4888 14.2305 0.928574 18.5379 0.928574 24.6518V51.3304C0.928574 57.5831 11.7667 62.4464 25.3839 62.4464C38.8622 62.4464 49.8393 57.5831 49.8393 51.3304V49.1071C62.2059 48.5513 72.0714 43.827 72.0714 37.9911V11.3125C72.0714 6.17132 63.3175 0.196432 47.6161 0.196432ZM45.3929 51.3304C45.3929 53.2757 38.3064 58 25.3839 58C12.3225 58 5.375 53.2757 5.375 51.3304V44.3828C9.68248 47.3008 17.0469 49.1071 25.3839 49.1071C33.582 49.1071 40.9464 47.3008 45.3929 44.3828V51.3304ZM45.3929 37.9911C45.3929 39.9364 38.3064 44.6607 25.3839 44.6607C12.3225 44.6607 5.375 39.9364 5.375 37.9911V31.0435C9.68248 33.9615 17.0469 35.7679 25.3839 35.7679C33.582 35.7679 40.9464 33.9615 45.3929 31.0435V37.9911ZM25.3839 31.3214C14.1289 31.3214 4.95815 28.4035 4.95815 24.6518C4.95815 21.0391 14.1289 17.9821 25.3839 17.9821C36.639 17.9821 45.6708 21.0391 45.6708 24.6518C45.6708 28.4035 36.639 31.3214 25.3839 31.3214ZM67.625 37.9911C67.625 39.9364 61.3722 44.1049 49.8393 44.6607V35.7679C57.0647 35.351 63.5954 33.6836 67.625 31.0435V37.9911ZM67.625 24.6518C67.625 26.5971 61.2333 30.7656 49.8393 31.3214V24.6518C49.8393 23.957 49.5614 23.1233 49.1445 22.4286C56.7868 22.1507 63.4565 20.4833 67.625 17.7042V24.6518ZM47.6161 17.9821C46.5045 17.9821 45.6708 17.9821 44.6981 17.9821C39.5569 14.9252 32.8873 13.9526 28.5798 13.8136C27.7461 12.9799 27.1903 12.2852 27.1903 11.3125C27.1903 7.69978 36.361 4.64286 47.6161 4.64286C58.8711 4.64286 67.9029 7.69978 67.9029 11.3125C67.9029 15.0642 58.8711 17.9821 47.6161 17.9821Z" fill="black" fill-opacity="0.38"/>
</svg>
